<svg width="94" height="94" viewBox="0 0 94 94" fill="none" xmlns="http://www.w3.org/2000/svg">
<g clip-path="url(#clip0_177_3842)">
<path d="M0 0H94V94H0V0Z" fill="white"/>
<path d="M51.3022 34.7017C51.3022 41.5804 45.5694 47.1567 38.4977 47.1567C31.4261 47.1567 25.6933 41.5804 25.6933 34.7017C25.6933 27.823 31.4261 22.2467 38.4977 22.2467C45.5694 22.2467 51.3022 27.823 51.3022 34.7017Z" fill="#95035C"/>
<path d="M38.4978 22.2467H68.0263V47.1567H38.4978V22.2467Z" fill="#95035C"/>
<path d="M42.6978 59.2984C42.6978 66.1771 48.4306 71.7534 55.5022 71.7534C62.5739 71.7534 68.3067 66.1771 68.3067 59.2984C68.3067 52.4197 62.5739 46.8434 55.5022 46.8434C48.4306 46.8434 42.6978 52.4197 42.6978 59.2984Z" fill="#95035C"/>
<path d="M55.5022 46.8434H25.9737V71.7534H55.5022V46.8434Z" fill="#95035C"/>
</g>
<defs>
<clipPath id="clip0_177_3842">
<rect width="94" height="94" rx="15" fill="white"/>
</clipPath>
</defs>
</svg>
