<svg width="25" height="25" viewBox="0 0 25 25" fill="none" xmlns="http://www.w3.org/2000/svg">
<path d="M12.5002 2.08325C11.1322 2.08325 9.77768 2.35269 8.51388 2.87617C7.25007 3.39966 6.10174 4.16695 5.13447 5.13422C3.18096 7.08773 2.0835 9.73725 2.0835 12.4999C2.0835 17.1041 5.07308 21.0103 9.2085 22.3958C9.72933 22.4791 9.896 22.1562 9.896 21.8749V20.1145C7.01058 20.7395 6.396 18.7187 6.396 18.7187C5.91683 17.5103 5.23975 17.1874 5.23975 17.1874C4.29183 16.5416 5.31266 16.5624 5.31266 16.5624C6.35433 16.6353 6.90641 17.6353 6.90641 17.6353C7.81266 19.2187 9.34391 18.7499 9.93766 18.4999C10.0314 17.8228 10.3022 17.3645 10.5939 17.1041C8.28141 16.8437 5.85433 15.9478 5.85433 11.9791C5.85433 10.8228 6.25016 9.89575 6.92725 9.15617C6.82308 8.89575 6.4585 7.81242 7.03141 6.40617C7.03141 6.40617 7.90641 6.12492 9.896 7.46867C10.7189 7.2395 11.6147 7.12492 12.5002 7.12492C13.3856 7.12492 14.2814 7.2395 15.1043 7.46867C17.0939 6.12492 17.9689 6.40617 17.9689 6.40617C18.5418 7.81242 18.1772 8.89575 18.0731 9.15617C18.7502 9.89575 19.146 10.8228 19.146 11.9791C19.146 15.9583 16.7085 16.8333 14.3856 17.0937C14.7606 17.4166 15.1043 18.052 15.1043 19.0208V21.8749C15.1043 22.1562 15.271 22.4895 15.8022 22.3958C19.9377 20.9999 22.9168 17.1041 22.9168 12.4999C22.9168 11.132 22.6474 9.77744 22.1239 8.51363C21.6004 7.24982 20.8331 6.1015 19.8659 5.13422C18.8986 4.16695 17.7503 3.39966 16.4864 2.87617C15.2226 2.35269 13.8681 2.08325 12.5002 2.08325Z" fill="black"/>
</svg>
