<svg width="25" height="20" viewBox="0 0 25 20" fill="none" xmlns="http://www.w3.org/2000/svg">
<g clip-path="url(#clip0_257_87)">
<path d="M5.68184 19.9015V9.65175L2.68623 6.74367L0 5.12988V18.0927C0 19.0935 0.76416 19.9015 1.70459 19.9015H5.68184Z" fill="#4285F4"/>
<path d="M19.3184 19.9016H23.2956C24.2389 19.9016 25.0002 19.0906 25.0002 18.0928V5.13013L21.9576 6.97852L19.3184 9.65189V19.9016Z" fill="#34A853"/>
<path d="M5.68203 9.65189L5.27441 5.64702L5.68203 1.81396L12.5002 7.24029L19.3184 1.81396L19.7743 5.44008L19.3184 9.65189L12.5002 15.0782L5.68203 9.65189Z" fill="#EA4335"/>
<path d="M19.3184 1.81385V9.65178L25.0002 5.12992V2.71821C25.0002 0.481419 22.5939 -0.793711 20.9094 0.54774L19.3184 1.81385Z" fill="#FBBC04"/>
<path d="M0 5.12996L2.61318 7.20976L5.68184 9.65183V1.8139L4.09082 0.547787C2.40332 -0.793767 0 0.481466 0 2.71815V5.12986V5.12996Z" fill="#C5221F"/>
</g>
<defs>
<clipPath id="clip0_257_87">
<rect width="25" height="20" fill="white"/>
</clipPath>
</defs>
</svg>
