<svg width="975" height="162" viewBox="0 0 975 162" fill="none" xmlns="http://www.w3.org/2000/svg">
<path d="M49.6705 29.8182C49.6705 35.5284 48.5881 40.3864 46.4233 44.392C44.2756 48.3977 41.3438 51.4574 37.6278 53.571C33.929 55.6676 29.7699 56.7159 25.1506 56.7159C20.4972 56.7159 16.321 55.6591 12.6222 53.5455C8.9233 51.4318 6 48.3722 3.85227 44.3665C1.70455 40.3608 0.630682 35.5114 0.630682 29.8182C0.630682 24.108 1.70455 19.25 3.85227 15.2443C6 11.2386 8.9233 8.1875 12.6222 6.09091C16.321 3.97727 20.4972 2.92045 25.1506 2.92045C29.7699 2.92045 33.929 3.97727 37.6278 6.09091C41.3438 8.1875 44.2756 11.2386 46.4233 15.2443C48.5881 19.25 49.6705 24.108 49.6705 29.8182ZM38.446 29.8182C38.446 26.1193 37.892 23 36.7841 20.4602C35.6932 17.9205 34.1506 15.9943 32.1562 14.6818C30.1619 13.3693 27.8267 12.7131 25.1506 12.7131C22.4744 12.7131 20.1392 13.3693 18.1449 14.6818C16.1506 15.9943 14.5994 17.9205 13.4915 20.4602C12.4006 23 11.8551 26.1193 11.8551 29.8182C11.8551 33.517 12.4006 36.6364 13.4915 39.1761C14.5994 41.7159 16.1506 43.642 18.1449 44.9545C20.1392 46.267 22.4744 46.9233 25.1506 46.9233C27.8267 46.9233 30.1619 46.267 32.1562 44.9545C34.1506 43.642 35.6932 41.7159 36.7841 39.1761C37.892 36.6364 38.446 33.517 38.446 29.8182ZM74.7741 56L64.0866 16.7273H75.1064L81.1917 43.1136H81.5496L87.8905 16.7273H98.7059L105.149 42.9602H105.481L111.464 16.7273H122.459L111.797 56H100.266L93.5155 31.3011H93.0297L86.2797 56H74.7741ZM148.521 33.2955V56H137.629V16.7273H148.01V23.6562H148.47C149.339 21.3722 150.797 19.5653 152.842 18.2358C154.888 16.8892 157.368 16.2159 160.283 16.2159C163.01 16.2159 165.388 16.8125 167.416 18.0057C169.444 19.1989 171.021 20.9034 172.146 23.1193C173.271 25.3182 173.834 27.9432 173.834 30.9943V56H162.942V32.9375C162.959 30.5341 162.345 28.6591 161.101 27.3125C159.856 25.9489 158.143 25.267 155.961 25.267C154.496 25.267 153.2 25.5824 152.075 26.2131C150.967 26.8437 150.098 27.7642 149.467 28.9744C148.854 30.1676 148.538 31.608 148.521 33.2955ZM238.922 16.7273V24.9091H214.683V16.7273H238.922ZM220.231 56V13.8892C220.231 11.0426 220.785 8.68181 221.893 6.80681C223.018 4.93181 224.552 3.52556 226.495 2.58806C228.439 1.65056 230.646 1.18181 233.118 1.18181C234.788 1.18181 236.314 1.30966 237.694 1.56534C239.092 1.82102 240.132 2.05114 240.814 2.25568L238.87 10.4375C238.444 10.3011 237.916 10.1733 237.285 10.054C236.672 9.93466 236.041 9.875 235.393 9.875C233.791 9.875 232.674 10.25 232.044 11C231.413 11.733 231.098 12.7642 231.098 14.0938V56H220.231ZM254.936 56V16.7273H265.828V56H254.936ZM260.407 11.6648C258.788 11.6648 257.399 11.1278 256.24 10.054C255.098 8.96307 254.527 7.65909 254.527 6.14204C254.527 4.64204 255.098 3.35511 256.24 2.28125C257.399 1.19034 258.788 0.644884 260.407 0.644884C262.027 0.644884 263.407 1.19034 264.549 2.28125C265.708 3.35511 266.288 4.64204 266.288 6.14204C266.288 7.65909 265.708 8.96307 264.549 10.054C263.407 11.1278 262.027 11.6648 260.407 11.6648ZM294.805 33.2955V56H283.913V16.7273H294.294V23.6562H294.754C295.623 21.3722 297.08 19.5653 299.126 18.2358C301.171 16.8892 303.651 16.2159 306.566 16.2159C309.294 16.2159 311.671 16.8125 313.7 18.0057C315.728 19.1989 317.305 20.9034 318.43 23.1193C319.555 25.3182 320.117 27.9432 320.117 30.9943V56H309.225V32.9375C309.242 30.5341 308.629 28.6591 307.384 27.3125C306.14 25.9489 304.427 25.267 302.245 25.267C300.779 25.267 299.484 25.5824 298.359 26.2131C297.251 26.8437 296.382 27.7642 295.751 28.9744C295.137 30.1676 294.822 31.608 294.805 33.2955ZM349.261 56.7415C346.755 56.7415 344.522 56.3068 342.562 55.4375C340.602 54.5511 339.051 53.2472 337.908 51.5256C336.783 49.7869 336.221 47.6222 336.221 45.0312C336.221 42.8494 336.622 41.017 337.423 39.5341C338.224 38.0511 339.315 36.858 340.695 35.9545C342.076 35.0511 343.644 34.3693 345.4 33.9091C347.173 33.4489 349.031 33.125 350.974 32.9375C353.258 32.6989 355.099 32.4773 356.497 32.2727C357.894 32.0511 358.908 31.7273 359.539 31.3011C360.17 30.875 360.485 30.2443 360.485 29.4091V29.2557C360.485 27.6364 359.974 26.3835 358.951 25.4972C357.945 24.6108 356.514 24.1676 354.656 24.1676C352.695 24.1676 351.136 24.6023 349.977 25.4716C348.818 26.3239 348.051 27.3977 347.676 28.6932L337.602 27.875C338.113 25.4886 339.119 23.4261 340.619 21.6875C342.119 19.9318 344.053 18.5852 346.423 17.6477C348.809 16.6932 351.57 16.2159 354.707 16.2159C356.889 16.2159 358.977 16.4716 360.971 16.983C362.982 17.4943 364.764 18.2869 366.315 19.3608C367.883 20.4347 369.119 21.8153 370.022 23.5028C370.926 25.1733 371.377 27.1761 371.377 29.5114V56H361.048V50.554H360.741C360.11 51.7812 359.266 52.8636 358.21 53.8011C357.153 54.7216 355.883 55.446 354.4 55.9744C352.917 56.4858 351.204 56.7415 349.261 56.7415ZM352.38 49.2244C353.982 49.2244 355.397 48.9091 356.624 48.2784C357.852 47.6307 358.815 46.7614 359.514 45.6705C360.212 44.5795 360.562 43.3437 360.562 41.9631V37.7955C360.221 38.017 359.752 38.2216 359.156 38.4091C358.576 38.5795 357.92 38.7415 357.187 38.8949C356.454 39.0312 355.721 39.1591 354.988 39.2784C354.255 39.3807 353.59 39.4744 352.994 39.5597C351.715 39.7472 350.599 40.0455 349.644 40.4545C348.69 40.8636 347.948 41.4176 347.42 42.1165C346.891 42.7983 346.627 43.6506 346.627 44.6733C346.627 46.1562 347.164 47.2898 348.238 48.0739C349.329 48.8409 350.71 49.2244 352.38 49.2244ZM400.08 33.2955V56H389.188V16.7273H399.568V23.6562H400.028C400.898 21.3722 402.355 19.5653 404.401 18.2358C406.446 16.8892 408.926 16.2159 411.841 16.2159C414.568 16.2159 416.946 16.8125 418.974 18.0057C421.003 19.1989 422.58 20.9034 423.705 23.1193C424.83 25.3182 425.392 27.9432 425.392 30.9943V56H414.5V32.9375C414.517 30.5341 413.903 28.6591 412.659 27.3125C411.415 25.9489 409.702 25.267 407.52 25.267C406.054 25.267 404.759 25.5824 403.634 26.2131C402.526 26.8437 401.656 27.7642 401.026 28.9744C400.412 30.1676 400.097 31.608 400.08 33.2955ZM461.081 56.767C457.058 56.767 453.598 55.9148 450.7 54.2102C447.82 52.4886 445.604 50.1023 444.052 47.0511C442.518 44 441.751 40.4886 441.751 36.517C441.751 32.4943 442.527 28.9659 444.078 25.9318C445.646 22.8807 447.871 20.5028 450.751 18.7983C453.632 17.0767 457.058 16.2159 461.03 16.2159C464.456 16.2159 467.456 16.8381 470.03 18.0824C472.604 19.3267 474.641 21.0739 476.141 23.3239C477.641 25.5739 478.467 28.2159 478.621 31.25H468.342C468.052 29.2898 467.285 27.7131 466.041 26.5199C464.814 25.3097 463.203 24.7045 461.209 24.7045C459.521 24.7045 458.047 25.1648 456.785 26.0852C455.541 26.9886 454.57 28.3097 453.871 30.0483C453.172 31.7869 452.822 33.892 452.822 36.3636C452.822 38.8693 453.163 41 453.845 42.7557C454.544 44.5114 455.524 45.8494 456.785 46.7699C458.047 47.6903 459.521 48.1506 461.209 48.1506C462.453 48.1506 463.57 47.8949 464.558 47.3835C465.564 46.8722 466.391 46.1307 467.038 45.1591C467.703 44.1705 468.138 42.9858 468.342 41.6051H478.621C478.45 44.6051 477.632 47.2472 476.166 49.5312C474.717 51.7983 472.714 53.571 470.158 54.8494C467.601 56.1278 464.575 56.767 461.081 56.767ZM494.954 56V16.7273H505.846V56H494.954ZM500.426 11.6648C498.807 11.6648 497.417 11.1278 496.258 10.054C495.116 8.96307 494.545 7.65909 494.545 6.14204C494.545 4.64204 495.116 3.35511 496.258 2.28125C497.417 1.19034 498.807 0.644884 500.426 0.644884C502.045 0.644884 503.426 1.19034 504.568 2.28125C505.727 3.35511 506.307 4.64204 506.307 6.14204C506.307 7.65909 505.727 8.96307 504.568 10.054C503.426 11.1278 502.045 11.6648 500.426 11.6648ZM535.13 56.7415C532.625 56.7415 530.392 56.3068 528.432 55.4375C526.471 54.5511 524.92 53.2472 523.778 51.5256C522.653 49.7869 522.091 47.6222 522.091 45.0312C522.091 42.8494 522.491 41.017 523.292 39.5341C524.094 38.0511 525.184 36.858 526.565 35.9545C527.946 35.0511 529.514 34.3693 531.27 33.9091C533.042 33.4489 534.9 33.125 536.844 32.9375C539.128 32.6989 540.969 32.4773 542.366 32.2727C543.764 32.0511 544.778 31.7273 545.409 31.3011C546.04 30.875 546.355 30.2443 546.355 29.4091V29.2557C546.355 27.6364 545.844 26.3835 544.821 25.4972C543.815 24.6108 542.383 24.1676 540.525 24.1676C538.565 24.1676 537.005 24.6023 535.846 25.4716C534.687 26.3239 533.92 27.3977 533.545 28.6932L523.471 27.875C523.983 25.4886 524.988 23.4261 526.488 21.6875C527.988 19.9318 529.923 18.5852 532.292 17.6477C534.679 16.6932 537.44 16.2159 540.577 16.2159C542.758 16.2159 544.846 16.4716 546.841 16.983C548.852 17.4943 550.633 18.2869 552.184 19.3608C553.753 20.4347 554.988 21.8153 555.892 23.5028C556.795 25.1733 557.247 27.1761 557.247 29.5114V56H546.917V50.554H546.611C545.98 51.7812 545.136 52.8636 544.079 53.8011C543.023 54.7216 541.753 55.446 540.27 55.9744C538.787 56.4858 537.074 56.7415 535.13 56.7415ZM538.25 49.2244C539.852 49.2244 541.267 48.9091 542.494 48.2784C543.721 47.6307 544.684 46.7614 545.383 45.6705C546.082 44.5795 546.432 43.3437 546.432 41.9631V37.7955C546.091 38.017 545.622 38.2216 545.025 38.4091C544.446 38.5795 543.79 38.7415 543.057 38.8949C542.324 39.0312 541.591 39.1591 540.858 39.2784C540.125 39.3807 539.46 39.4744 538.863 39.5597C537.585 39.7472 536.469 40.0455 535.514 40.4545C534.559 40.8636 533.818 41.4176 533.29 42.1165C532.761 42.7983 532.497 43.6506 532.497 44.6733C532.497 46.1562 533.034 47.2898 534.108 48.0739C535.199 48.8409 536.579 49.2244 538.25 49.2244ZM585.949 3.63636V56H575.057V3.63636H585.949ZM651.178 16.7273V24.9091H626.939V16.7273H651.178ZM632.487 56V13.8892C632.487 11.0426 633.041 8.68181 634.149 6.80681C635.274 4.93181 636.808 3.52556 638.752 2.58806C640.695 1.65056 642.902 1.18181 645.374 1.18181C647.044 1.18181 648.57 1.30966 649.95 1.56534C651.348 1.82102 652.388 2.05114 653.07 2.25568L651.127 10.4375C650.7 10.3011 650.172 10.1733 649.541 10.054C648.928 9.93466 648.297 9.875 647.649 9.875C646.047 9.875 644.931 10.25 644.3 11C643.669 11.733 643.354 12.7642 643.354 14.0938V56H632.487ZM667.192 56V16.7273H677.752V23.5795H678.161C678.877 21.142 680.078 19.3011 681.766 18.0568C683.453 16.7955 685.396 16.1648 687.595 16.1648C688.141 16.1648 688.729 16.1989 689.36 16.267C689.99 16.3352 690.544 16.429 691.021 16.5483V26.2131C690.51 26.0597 689.803 25.9233 688.899 25.804C687.996 25.6847 687.169 25.625 686.419 25.625C684.817 25.625 683.385 25.9744 682.124 26.6733C680.879 27.3551 679.891 28.3097 679.158 29.5369C678.442 30.7642 678.084 32.179 678.084 33.7812V56H667.192ZM722.082 56.767C718.043 56.767 714.565 55.9489 711.651 54.3125C708.753 52.6591 706.52 50.3239 704.952 47.3068C703.384 44.2727 702.599 40.6847 702.599 36.5426C702.599 32.5028 703.384 28.9574 704.952 25.9062C706.52 22.8551 708.727 20.4773 711.574 18.7727C714.438 17.0682 717.796 16.2159 721.648 16.2159C724.239 16.2159 726.651 16.6335 728.884 17.4688C731.134 18.2869 733.094 19.5227 734.764 21.1761C736.452 22.8295 737.764 24.9091 738.702 27.4148C739.639 29.9034 740.108 32.8182 740.108 36.1591V39.1506H706.946V32.4006H729.855C729.855 30.8324 729.514 29.4432 728.832 28.233C728.151 27.0227 727.205 26.0767 725.994 25.3949C724.801 24.696 723.412 24.3466 721.827 24.3466C720.173 24.3466 718.707 24.7301 717.429 25.4972C716.168 26.2472 715.179 27.2614 714.463 28.5398C713.747 29.8011 713.381 31.2074 713.364 32.7585V39.1761C713.364 41.1193 713.722 42.7983 714.438 44.2131C715.171 45.6278 716.202 46.7188 717.531 47.4858C718.861 48.2528 720.438 48.6364 722.261 48.6364C723.472 48.6364 724.58 48.4659 725.585 48.125C726.591 47.7841 727.452 47.2727 728.168 46.5909C728.884 45.9091 729.429 45.0739 729.804 44.0852L739.878 44.75C739.367 47.1705 738.318 49.2841 736.733 51.0909C735.165 52.8807 733.136 54.2784 730.648 55.2841C728.176 56.2727 725.321 56.767 722.082 56.767ZM774.474 56.767C770.434 56.767 766.957 55.9489 764.042 54.3125C761.144 52.6591 758.911 50.3239 757.343 47.3068C755.775 44.2727 754.991 40.6847 754.991 36.5426C754.991 32.5028 755.775 28.9574 757.343 25.9062C758.911 22.8551 761.119 20.4773 763.965 18.7727C766.829 17.0682 770.187 16.2159 774.039 16.2159C776.63 16.2159 779.042 16.6335 781.275 17.4688C783.525 18.2869 785.485 19.5227 787.156 21.1761C788.843 22.8295 790.156 24.9091 791.093 27.4148C792.031 29.9034 792.499 32.8182 792.499 36.1591V39.1506H759.337V32.4006H782.246C782.246 30.8324 781.906 29.4432 781.224 28.233C780.542 27.0227 779.596 26.0767 778.386 25.3949C777.192 24.696 775.803 24.3466 774.218 24.3466C772.565 24.3466 771.099 24.7301 769.82 25.4972C768.559 26.2472 767.57 27.2614 766.854 28.5398C766.138 29.8011 765.772 31.2074 765.755 32.7585V39.1761C765.755 41.1193 766.113 42.7983 766.829 44.2131C767.562 45.6278 768.593 46.7188 769.923 47.4858C771.252 48.2528 772.829 48.6364 774.653 48.6364C775.863 48.6364 776.971 48.4659 777.977 48.125C778.982 47.7841 779.843 47.2727 780.559 46.5909C781.275 45.9091 781.82 45.0739 782.195 44.0852L792.269 44.75C791.758 47.1705 790.709 49.2841 789.124 51.0909C787.556 52.8807 785.528 54.2784 783.039 55.2841C780.567 56.2727 777.712 56.767 774.474 56.767ZM823.439 56.6392C820.456 56.6392 817.754 55.8722 815.334 54.3381C812.93 52.7869 811.021 50.5114 809.606 47.5114C808.209 44.4943 807.51 40.7955 807.51 36.4148C807.51 31.9148 808.234 28.1733 809.683 25.1903C811.132 22.1903 813.058 19.9489 815.462 18.4659C817.882 16.9659 820.533 16.2159 823.413 16.2159C825.612 16.2159 827.444 16.5909 828.91 17.3409C830.393 18.0739 831.587 18.9943 832.49 20.1023C833.41 21.1932 834.109 22.267 834.587 23.3239H834.919V3.63636H845.785V56H835.047V49.7102H834.587C834.075 50.8011 833.351 51.8835 832.413 52.9574C831.493 54.0142 830.291 54.892 828.808 55.5909C827.342 56.2898 825.552 56.6392 823.439 56.6392ZM826.89 47.9716C828.646 47.9716 830.129 47.4943 831.339 46.5398C832.567 45.5682 833.504 44.2131 834.152 42.4744C834.817 40.7358 835.149 38.6989 835.149 36.3636C835.149 34.0284 834.825 32 834.177 30.2784C833.53 28.5568 832.592 27.2273 831.365 26.2898C830.138 25.3523 828.646 24.8835 826.89 24.8835C825.101 24.8835 823.592 25.3693 822.365 26.3409C821.138 27.3125 820.209 28.6591 819.578 30.3807C818.947 32.1023 818.632 34.0966 818.632 36.3636C818.632 38.6477 818.947 40.6676 819.578 42.4233C820.226 44.1619 821.155 45.5256 822.365 46.5142C823.592 47.4858 825.101 47.9716 826.89 47.9716ZM881.845 56.767C877.873 56.767 874.439 55.9233 871.541 54.2358C868.66 52.5312 866.436 50.1619 864.868 47.1278C863.299 44.0767 862.515 40.5398 862.515 36.517C862.515 32.4602 863.299 28.9148 864.868 25.8807C866.436 22.8295 868.66 20.4602 871.541 18.7727C874.439 17.0682 877.873 16.2159 881.845 16.2159C885.817 16.2159 889.243 17.0682 892.123 18.7727C895.021 20.4602 897.254 22.8295 898.822 25.8807C900.39 28.9148 901.174 32.4602 901.174 36.517C901.174 40.5398 900.39 44.0767 898.822 47.1278C897.254 50.1619 895.021 52.5312 892.123 54.2358C889.243 55.9233 885.817 56.767 881.845 56.767ZM881.896 48.3295C883.703 48.3295 885.211 47.8182 886.422 46.7955C887.632 45.7557 888.544 44.3409 889.157 42.5511C889.788 40.7614 890.103 38.7244 890.103 36.4403C890.103 34.1562 889.788 32.1193 889.157 30.3295C888.544 28.5398 887.632 27.125 886.422 26.0852C885.211 25.0455 883.703 24.5256 881.896 24.5256C880.072 24.5256 878.538 25.0455 877.294 26.0852C876.067 27.125 875.138 28.5398 874.507 30.3295C873.893 32.1193 873.586 34.1562 873.586 36.4403C873.586 38.7244 873.893 40.7614 874.507 42.5511C875.138 44.3409 876.067 45.7557 877.294 46.7955C878.538 47.8182 880.072 48.3295 881.896 48.3295ZM917.617 56V16.7273H927.998V23.6562H928.458C929.276 21.3551 930.64 19.5398 932.549 18.2102C934.458 16.8807 936.742 16.2159 939.401 16.2159C942.094 16.2159 944.387 16.8892 946.279 18.2358C948.171 19.5653 949.432 21.3722 950.063 23.6562H950.472C951.273 21.4062 952.722 19.608 954.819 18.2614C956.932 16.8977 959.429 16.2159 962.31 16.2159C965.975 16.2159 968.949 17.3835 971.233 19.7188C973.535 22.0369 974.685 25.3267 974.685 29.5881V56H963.819V31.7358C963.819 29.554 963.239 27.9176 962.08 26.8267C960.921 25.7358 959.472 25.1903 957.733 25.1903C955.756 25.1903 954.214 25.821 953.106 27.0824C951.998 28.3267 951.444 29.9716 951.444 32.017V56H940.884V31.5057C940.884 29.5795 940.33 28.0455 939.222 26.9034C938.131 25.7614 936.691 25.1903 934.901 25.1903C933.691 25.1903 932.6 25.4972 931.628 26.1108C930.674 26.7074 929.915 27.5511 929.353 28.642C928.79 29.7159 928.509 30.9773 928.509 32.4261V56H917.617ZM243.31 161L232.623 121.727H243.643L249.728 148.114H250.086L256.427 121.727H267.242L273.685 147.96H274.018L280.001 121.727H290.995L280.333 161H268.802L262.052 136.301H261.566L254.816 161H243.31ZM306.165 161V121.727H317.057V161H306.165ZM311.637 116.665C310.018 116.665 308.628 116.128 307.469 115.054C306.327 113.963 305.756 112.659 305.756 111.142C305.756 109.642 306.327 108.355 307.469 107.281C308.628 106.19 310.018 105.645 311.637 105.645C313.256 105.645 314.637 106.19 315.779 107.281C316.938 108.355 317.518 109.642 317.518 111.142C317.518 112.659 316.938 113.963 315.779 115.054C314.637 116.128 313.256 116.665 311.637 116.665ZM356.032 121.727V129.909H332.381V121.727H356.032ZM337.75 112.318H348.643V148.932C348.643 149.937 348.796 150.722 349.103 151.284C349.41 151.83 349.836 152.213 350.381 152.435C350.944 152.656 351.591 152.767 352.324 152.767C352.836 152.767 353.347 152.724 353.858 152.639C354.37 152.537 354.762 152.46 355.035 152.409L356.748 160.514C356.202 160.685 355.435 160.881 354.446 161.102C353.458 161.341 352.256 161.486 350.841 161.537C348.216 161.639 345.915 161.29 343.938 160.489C341.978 159.687 340.452 158.443 339.361 156.756C338.27 155.068 337.733 152.937 337.75 150.364V112.318ZM384.223 138.295V161H373.331V108.636H383.916V128.656H384.376C385.262 126.338 386.694 124.523 388.672 123.21C390.649 121.881 393.129 121.216 396.112 121.216C398.839 121.216 401.217 121.812 403.245 123.006C405.291 124.182 406.876 125.878 408.001 128.094C409.143 130.293 409.706 132.926 409.689 135.994V161H398.797V137.938C398.814 135.517 398.2 133.634 396.956 132.287C395.728 130.94 394.007 130.267 391.791 130.267C390.308 130.267 388.995 130.582 387.853 131.213C386.728 131.844 385.842 132.764 385.194 133.974C384.564 135.168 384.24 136.608 384.223 138.295Z" fill="black"/>
<path d="M489.121 115.924C488.874 113.432 487.813 111.496 485.939 110.116C484.065 108.736 481.521 108.046 478.308 108.046C476.125 108.046 474.281 108.355 472.778 108.973C471.274 109.57 470.121 110.404 469.318 111.475C468.535 112.547 468.144 113.762 468.144 115.121C468.103 116.254 468.339 117.243 468.854 118.087C469.39 118.931 470.121 119.663 471.048 120.281C471.975 120.878 473.046 121.403 474.261 121.856C475.476 122.289 476.774 122.659 478.154 122.968L483.838 124.328C486.598 124.946 489.132 125.77 491.438 126.799C493.745 127.829 495.743 129.096 497.432 130.599C499.121 132.103 500.429 133.874 501.356 135.913C502.303 137.952 502.787 140.29 502.808 142.926C502.787 146.799 501.799 150.156 499.842 152.998C497.906 155.82 495.105 158.013 491.438 159.579C487.793 161.124 483.395 161.896 478.246 161.896C473.138 161.896 468.69 161.113 464.9 159.548C461.131 157.983 458.185 155.665 456.064 152.597C453.963 149.507 452.861 145.686 452.758 141.135H465.703C465.847 143.256 466.455 145.027 467.526 146.449C468.617 147.849 470.069 148.91 471.882 149.631C473.715 150.331 475.785 150.681 478.092 150.681C480.357 150.681 482.324 150.352 483.993 149.692C485.682 149.033 486.99 148.117 487.916 146.943C488.843 145.769 489.307 144.42 489.307 142.896C489.307 141.474 488.884 140.28 488.04 139.312C487.216 138.344 486.001 137.52 484.394 136.84C482.808 136.161 480.862 135.543 478.555 134.987L471.666 133.256C466.331 131.959 462.119 129.93 459.03 127.17C455.94 124.41 454.406 120.692 454.426 116.017C454.406 112.186 455.425 108.839 457.485 105.976C459.565 103.113 462.418 100.879 466.043 99.272C469.668 97.6655 473.787 96.8622 478.401 96.8622C483.097 96.8622 487.196 97.6655 490.697 99.272C494.219 100.879 496.958 103.113 498.915 105.976C500.872 108.839 501.881 112.155 501.943 115.924H489.121ZM523.116 161V97.7273H548.079C552.878 97.7273 556.966 98.6438 560.344 100.477C563.722 102.289 566.297 104.812 568.068 108.046C569.86 111.259 570.756 114.967 570.756 119.168C570.756 123.37 569.85 127.077 568.037 130.29C566.225 133.504 563.598 136.006 560.159 137.798C556.74 139.59 552.6 140.486 547.739 140.486H531.828V129.765H545.576C548.151 129.765 550.272 129.322 551.941 128.437C553.63 127.531 554.886 126.284 555.71 124.699C556.554 123.092 556.977 121.249 556.977 119.168C556.977 117.067 556.554 115.234 555.71 113.669C554.886 112.083 553.63 110.858 551.941 109.993C550.252 109.107 548.11 108.664 545.515 108.664H536.493V161H523.116ZM590.755 161V97.7273H615.718C620.496 97.7273 624.575 98.582 627.952 100.292C631.351 101.98 633.936 104.38 635.707 107.49C637.499 110.58 638.395 114.215 638.395 118.396C638.395 122.598 637.489 126.212 635.676 129.24C633.864 132.247 631.238 134.554 627.798 136.161C624.379 137.767 620.239 138.57 615.378 138.57H598.664V127.819H613.216C615.77 127.819 617.891 127.469 619.58 126.768C621.269 126.068 622.525 125.018 623.349 123.617C624.194 122.217 624.616 120.476 624.616 118.396C624.616 116.295 624.194 114.524 623.349 113.082C622.525 111.64 621.259 110.549 619.549 109.807C617.86 109.045 615.728 108.664 613.154 108.664H604.132V161H590.755ZM624.925 132.206L640.65 161H625.882L610.497 132.206H624.925ZM672.536 97.7273V161H659.159V97.7273H672.536ZM747.775 97.7273V161H736.221L708.693 121.176H708.23V161H694.853V97.7273H706.593L733.904 137.52H734.46V97.7273H747.775ZM767.728 108.757V97.7273H819.694V108.757H800.322V161H787.099V108.757H767.728Z" fill="url(#paint0_linear_186_356)"/>
<defs>
<linearGradient id="paint0_linear_186_356" x1="477" y1="136.943" x2="721.566" y2="192.958" gradientUnits="userSpaceOnUse">
<stop stop-color="#A11CEF"/>
<stop offset="1" stop-color="#F302CB" stop-opacity="0.62"/>
</linearGradient>
</defs>
</svg>
