<svg width="51" height="50" viewBox="0 0 51 50" fill="none" xmlns="http://www.w3.org/2000/svg">
<g clip-path="url(#clip0_211_209)">
<path d="M40.3438 35.6934C41.418 36.2305 42.3864 36.8897 43.249 37.6709C44.1117 38.4522 44.8441 39.3229 45.4463 40.2832C46.0485 41.2435 46.5205 42.2852 46.8623 43.4082C47.2041 44.5313 47.375 45.6869 47.375 46.875H44.25C44.25 45.5892 44.0059 44.3767 43.5176 43.2373C43.0293 42.098 42.362 41.1052 41.5156 40.2588C40.6693 39.4125 39.6683 38.737 38.5127 38.2325C37.3571 37.7279 36.1445 37.4838 34.875 37.5C33.5729 37.5 32.3604 37.7442 31.2373 38.2325C30.1143 38.7207 29.1214 39.3881 28.2588 40.2344C27.3962 41.0808 26.7207 42.0817 26.2324 43.2373C25.7441 44.3929 25.5 45.6055 25.5 46.875H22.375C22.375 45.6869 22.5378 44.5313 22.8633 43.4082C23.1888 42.2852 23.6608 41.2435 24.2793 40.2832C24.8978 39.3229 25.6383 38.4522 26.501 37.6709C27.3636 36.8897 28.332 36.2305 29.4062 35.6934C28.1855 34.8145 27.2334 33.7159 26.5498 32.3975C25.8662 31.0791 25.5163 29.655 25.5 28.125C25.5 26.8392 25.2559 25.6267 24.7676 24.4873C24.2793 23.348 23.612 22.3552 22.7656 21.5088C21.9193 20.6625 20.9183 19.987 19.7627 19.4825C18.6071 18.9779 17.3945 18.7338 16.125 18.75C14.8229 18.75 13.6104 18.9942 12.4873 19.4825C11.3643 19.9707 10.3714 20.6381 9.50879 21.4844C8.64616 22.3308 7.9707 23.3317 7.48242 24.4873C6.99414 25.6429 6.75 26.8555 6.75 28.125H3.625C3.625 26.9369 3.78776 25.7813 4.11328 24.6582C4.4388 23.5352 4.91081 22.4935 5.5293 21.5332C6.14779 20.5729 6.88835 19.7022 7.75098 18.9209C8.61361 18.1397 9.58203 17.4805 10.6562 16.9434C9.43555 16.0645 8.4834 14.9659 7.7998 13.6475C7.11621 12.3291 6.76628 10.905 6.75 9.37503C6.75 8.08922 6.99414 6.87666 7.48242 5.73734C7.9707 4.59801 8.63802 3.60517 9.48438 2.75882C10.3307 1.91247 11.3236 1.23701 12.4629 0.732452C13.6022 0.227895 14.8229 -0.0162455 16.125 3.05176e-05C17.4108 3.05176e-05 18.6234 0.244171 19.7627 0.732452C20.902 1.22073 21.8949 1.88805 22.7412 2.73441C23.5876 3.58076 24.263 4.58174 24.7676 5.73734C25.2721 6.89293 25.5163 8.1055 25.5 9.37503C25.5 10.905 25.1582 12.3291 24.4746 13.6475C23.791 14.9659 22.8307 16.0645 21.5938 16.9434C22.8307 17.5619 23.9375 18.3594 24.9141 19.336C25.8906 20.3125 26.6882 21.4193 27.3066 22.6563C28.1855 21.4356 29.2842 20.4834 30.6025 19.7998C31.9209 19.1162 33.3451 18.7663 34.875 18.75C36.1608 18.75 37.3734 18.9942 38.5127 19.4825C39.652 19.9707 40.6449 20.6381 41.4912 21.4844C42.3376 22.3308 43.013 23.3317 43.5176 24.4873C44.0221 25.6429 44.2663 26.8555 44.25 28.125C44.25 29.655 43.9082 31.0791 43.2246 32.3975C42.541 33.7159 41.5807 34.8145 40.3438 35.6934ZM16.125 15.625C16.9876 15.625 17.7933 15.4623 18.542 15.1367C19.2907 14.8112 19.958 14.3636 20.5439 13.794C21.1299 13.2243 21.5775 12.5651 21.8867 11.8164C22.196 11.0677 22.3587 10.2539 22.375 9.37503C22.375 8.5124 22.2122 7.70674 21.8867 6.95804C21.5612 6.20934 21.1136 5.54202 20.5439 4.95609C19.9743 4.37015 19.3151 3.92256 18.5664 3.61331C17.8177 3.30407 17.0039 3.14131 16.125 3.12503C15.2624 3.12503 14.4567 3.28779 13.708 3.61331C12.9593 3.93883 12.292 4.38642 11.7061 4.95609C11.1201 5.52575 10.6725 6.18493 10.3633 6.93362C10.054 7.68232 9.89128 8.49612 9.875 9.37503C9.875 10.2377 10.0378 11.0433 10.3633 11.792C10.6888 12.5407 11.1364 13.208 11.7061 13.794C12.2757 14.3799 12.9349 14.8275 13.6836 15.1367C14.4323 15.446 15.2461 15.6088 16.125 15.625ZM34.875 34.375C35.7376 34.375 36.5433 34.2123 37.292 33.8867C38.0407 33.5612 38.708 33.1136 39.2939 32.544C39.8799 31.9743 40.3275 31.3151 40.6367 30.5664C40.946 29.8177 41.1087 29.0039 41.125 28.125C41.125 27.2624 40.9622 26.4567 40.6367 25.708C40.3112 24.9593 39.8636 24.292 39.2939 23.7061C38.7243 23.1201 38.0651 22.6726 37.3164 22.3633C36.5677 22.0541 35.7539 21.8913 34.875 21.875C34.0124 21.875 33.2067 22.0378 32.458 22.3633C31.7093 22.6888 31.042 23.1364 30.4561 23.7061C29.8701 24.2757 29.4225 24.9349 29.1133 25.6836C28.804 26.4323 28.6413 27.2461 28.625 28.125C28.625 28.9877 28.7878 29.7933 29.1133 30.542C29.4388 31.2907 29.8864 31.958 30.4561 32.544C31.0257 33.1299 31.6849 33.5775 32.4336 33.8867C33.1823 34.196 33.9961 34.3588 34.875 34.375ZM38 6.25003H28.625V3.12503H41.125V15.625H38V6.25003Z" fill="black"/>
</g>
<defs>
<clipPath id="clip0_211_209">
<rect width="50" height="50" fill="white" transform="translate(0.5)"/>
</clipPath>
</defs>
</svg>
