<svg width="419" height="52" viewBox="0 0 419 52" fill="none" xmlns="http://www.w3.org/2000/svg">
<path d="M3.58452 42V10.7273H15.5561C17.8161 10.7273 19.6942 11.0836 21.1907 11.7962C22.6973 12.4986 23.8222 13.4606 24.5653 14.6822C25.3187 15.9038 25.6953 17.2882 25.6953 18.8356C25.6953 20.1081 25.451 21.1973 24.9624 22.1033C24.4737 22.9992 23.8171 23.727 22.9925 24.2869C22.168 24.8468 21.2467 25.2489 20.2287 25.4933V25.7986C21.3383 25.8597 22.4021 26.2008 23.4201 26.8217C24.4483 27.4325 25.2881 28.2978 25.9396 29.4176C26.5911 30.5374 26.9169 31.8913 26.9169 33.4794C26.9169 35.098 26.525 36.5537 25.7411 37.8466C24.9573 39.1293 23.7764 40.1422 22.1985 40.8853C20.6206 41.6284 18.6355 42 16.2433 42H3.58452ZM9.24965 37.2663H15.3423C17.3987 37.2663 18.8799 36.8744 19.7859 36.0906C20.7021 35.2965 21.1602 34.2785 21.1602 33.0366C21.1602 32.1102 20.9311 31.2754 20.473 30.5323C20.0149 29.779 19.3634 29.1886 18.5185 28.761C17.6735 28.3233 16.6657 28.1044 15.495 28.1044H9.24965V37.2663ZM9.24965 24.0273H14.8537C15.831 24.0273 16.7115 23.8492 17.4954 23.4929C18.2792 23.1264 18.8951 22.6123 19.343 21.9506C19.8011 21.2788 20.0302 20.4847 20.0302 19.5685C20.0302 18.3571 19.6026 17.3595 18.7475 16.5756C17.9026 15.7918 16.6454 15.3999 14.9759 15.3999H9.24965V24.0273ZM52.1402 32.1357V18.5455H57.6679V42H52.3081V37.8313H52.0638C51.5345 39.1445 50.6641 40.2185 49.4527 41.0533C48.2514 41.888 46.7703 42.3054 45.0091 42.3054C43.472 42.3054 42.1129 41.9644 40.9321 41.2823C39.7614 40.5901 38.8452 39.5874 38.1835 38.2741C37.5218 36.9508 37.1909 35.3525 37.1909 33.4794V18.5455H42.7186V32.6243C42.7186 34.1106 43.1258 35.2914 43.9402 36.1669C44.7546 37.0424 45.8235 37.4801 47.1469 37.4801C47.9613 37.4801 48.7502 37.2816 49.5137 36.8846C50.2772 36.4876 50.9033 35.8971 51.3919 35.1133C51.8908 34.3192 52.1402 33.3267 52.1402 32.1357ZM68.9421 42V18.5455H74.4698V42H68.9421ZM71.7212 15.2166C70.8457 15.2166 70.0924 14.9265 69.4613 14.3462C68.8301 13.7558 68.5145 13.0483 68.5145 12.2237C68.5145 11.389 68.8301 10.6815 69.4613 10.1012C70.0924 9.51077 70.8457 9.21555 71.7212 9.21555C72.6068 9.21555 73.3602 9.51077 73.9811 10.1012C74.6123 10.6815 74.9279 11.389 74.9279 12.2237C74.9279 13.0483 74.6123 13.7558 73.9811 14.3462C73.3602 14.9265 72.6068 15.2166 71.7212 15.2166ZM91.2717 10.7273V42H85.744V10.7273H91.2717ZM111.25 42.4123C109.407 42.4123 107.758 41.9389 106.302 40.9922C104.847 40.0455 103.696 38.6712 102.851 36.8693C102.006 35.0675 101.584 32.8788 101.584 30.3033C101.584 27.6972 102.011 25.4983 102.867 23.7067C103.732 21.9048 104.897 20.5458 106.363 19.6296C107.829 18.7032 109.463 18.2401 111.265 18.2401C112.639 18.2401 113.769 18.4742 114.655 18.9425C115.541 19.4006 116.243 19.9554 116.762 20.6069C117.281 21.2482 117.683 21.8539 117.968 22.424H118.198V10.7273H123.741V42H118.304V38.3047H117.968C117.683 38.8748 117.271 39.4805 116.732 40.1218C116.192 40.753 115.479 41.2925 114.594 41.7404C113.708 42.1883 112.593 42.4123 111.25 42.4123ZM112.792 37.8771C113.963 37.8771 114.96 37.5616 115.785 36.9304C116.609 36.2891 117.236 35.3983 117.663 34.2582C118.091 33.118 118.304 31.7895 118.304 30.2727C118.304 28.7559 118.091 27.4376 117.663 26.3178C117.246 25.198 116.625 24.3277 115.8 23.7067C114.986 23.0857 113.983 22.7752 112.792 22.7752C111.56 22.7752 110.532 23.0959 109.707 23.7372C108.883 24.3786 108.262 25.2642 107.845 26.3942C107.427 27.5241 107.218 28.817 107.218 30.2727C107.218 31.7386 107.427 33.0468 107.845 34.1971C108.272 35.3372 108.898 36.2382 109.723 36.8999C110.558 37.5514 111.581 37.8771 112.792 37.8771ZM156.317 42L149.69 18.5455H155.325L159.448 35.0369H159.662L163.876 18.5455H169.45L173.664 34.9453H173.893L177.955 18.5455H183.605L176.962 42H171.206L166.808 26.1499H166.487L162.089 42H156.317ZM193.054 42V18.5455H198.582V42H193.054ZM195.833 15.2166C194.958 15.2166 194.205 14.9265 193.573 14.3462C192.942 13.7558 192.627 13.0483 192.627 12.2237C192.627 11.389 192.942 10.6815 193.573 10.1012C194.205 9.51077 194.958 9.21555 195.833 9.21555C196.719 9.21555 197.472 9.51077 198.093 10.1012C198.724 10.6815 199.04 11.389 199.04 12.2237C199.04 13.0483 198.724 13.7558 198.093 14.3462C197.472 14.9265 196.719 15.2166 195.833 15.2166ZM221.568 18.5455V22.821H208.085V18.5455H221.568ZM211.414 12.9261H216.941V34.9453C216.941 35.6884 217.053 36.2585 217.277 36.6555C217.511 37.0424 217.817 37.3071 218.193 37.4496C218.57 37.5921 218.987 37.6634 219.446 37.6634C219.792 37.6634 220.107 37.6379 220.392 37.587C220.688 37.5361 220.911 37.4903 221.064 37.4496L221.996 41.771C221.7 41.8728 221.278 41.9847 220.728 42.1069C220.189 42.229 219.527 42.3003 218.743 42.3207C217.359 42.3614 216.112 42.1527 215.002 41.6946C213.892 41.2263 213.012 40.5036 212.36 39.5263C211.719 38.549 211.403 37.3274 211.414 35.8615V12.9261ZM237.813 28.2571V42H232.285V10.7273H237.691V22.5309H237.965C238.515 21.2075 239.365 20.1641 240.515 19.4006C241.676 18.6269 243.152 18.2401 244.944 18.2401C246.572 18.2401 247.993 18.5811 249.204 19.2631C250.415 19.9452 251.352 20.9428 252.014 22.256C252.686 23.5692 253.021 25.1726 253.021 27.0661V42H247.494V27.9212C247.494 26.3433 247.087 25.1166 246.272 24.2411C245.468 23.3555 244.338 22.9126 242.882 22.9126C241.905 22.9126 241.03 23.1264 240.256 23.554C239.492 23.9714 238.892 24.5771 238.454 25.3711C238.026 26.1651 237.813 27.1271 237.813 28.2571ZM295.451 32.1357V18.5455H300.979V42H295.619V37.8313H295.375C294.846 39.1445 293.975 40.2185 292.764 41.0533C291.563 41.888 290.081 42.3054 288.32 42.3054C286.783 42.3054 285.424 41.9644 284.243 41.2823C283.072 40.5901 282.156 39.5874 281.495 38.2741C280.833 36.9508 280.502 35.3525 280.502 33.4794V18.5455H286.03V32.6243C286.03 34.1106 286.437 35.2914 287.251 36.1669C288.066 37.0424 289.135 37.4801 290.458 37.4801C291.272 37.4801 292.061 37.2816 292.825 36.8846C293.588 36.4876 294.214 35.8971 294.703 35.1133C295.202 34.3192 295.451 33.3267 295.451 32.1357ZM330.791 24.745L325.752 25.2947C325.609 24.7857 325.36 24.3073 325.004 23.8594C324.657 23.4115 324.189 23.0501 323.599 22.7752C323.008 22.5004 322.286 22.3629 321.43 22.3629C320.28 22.3629 319.313 22.6123 318.529 23.1111C317.755 23.61 317.374 24.2564 317.384 25.0504C317.374 25.7325 317.623 26.2873 318.132 26.7148C318.651 27.1424 319.506 27.4936 320.697 27.7685L324.698 28.6236C326.917 29.102 328.567 29.8604 329.646 30.8988C330.735 31.9371 331.285 33.2962 331.295 34.9759C331.285 36.4519 330.852 37.755 329.997 38.8849C329.152 40.0047 327.976 40.8802 326.469 41.5114C324.963 42.1425 323.232 42.4581 321.278 42.4581C318.407 42.4581 316.096 41.8575 314.345 40.6562C312.594 39.4448 311.551 37.7601 311.215 35.6019L316.605 35.0827C316.849 36.1415 317.369 36.9406 318.163 37.4801C318.957 38.0196 319.99 38.2894 321.262 38.2894C322.576 38.2894 323.629 38.0196 324.423 37.4801C325.228 36.9406 325.63 36.2738 325.63 35.4798C325.63 34.8079 325.37 34.2531 324.851 33.8153C324.342 33.3776 323.548 33.0417 322.469 32.8075L318.468 31.9677C316.218 31.4994 314.554 30.7105 313.475 29.6009C312.396 28.4811 311.861 27.0661 311.871 25.3558C311.861 23.9103 312.253 22.6581 313.047 21.5994C313.851 20.5305 314.966 19.706 316.391 19.1257C317.827 18.5353 319.481 18.2401 321.354 18.2401C324.103 18.2401 326.266 18.8254 327.844 19.9961C329.432 21.1668 330.414 22.7498 330.791 24.745Z" fill="black"/>
<g clip-path="url(#clip0_211_211)">
<path d="M408.344 35.6934C409.418 36.2305 410.386 36.8897 411.249 37.6709C412.112 38.4522 412.844 39.3229 413.446 40.2832C414.049 41.2435 414.521 42.2852 414.862 43.4082C415.204 44.5313 415.375 45.6869 415.375 46.875H412.25C412.25 45.5892 412.006 44.3767 411.518 43.2373C411.029 42.098 410.362 41.1052 409.516 40.2588C408.669 39.4125 407.668 38.737 406.513 38.2325C405.357 37.7279 404.145 37.4838 402.875 37.5C401.573 37.5 400.36 37.7442 399.237 38.2325C398.114 38.7207 397.121 39.3881 396.259 40.2344C395.396 41.0808 394.721 42.0817 394.232 43.2373C393.744 44.3929 393.5 45.6055 393.5 46.875H390.375C390.375 45.6869 390.538 44.5313 390.863 43.4082C391.189 42.2852 391.661 41.2435 392.279 40.2832C392.898 39.3229 393.638 38.4522 394.501 37.6709C395.364 36.8897 396.332 36.2305 397.406 35.6934C396.186 34.8145 395.233 33.7159 394.55 32.3975C393.866 31.0791 393.516 29.655 393.5 28.125C393.5 26.8392 393.256 25.6267 392.768 24.4873C392.279 23.348 391.612 22.3552 390.766 21.5088C389.919 20.6625 388.918 19.987 387.763 19.4825C386.607 18.9779 385.395 18.7338 384.125 18.75C382.823 18.75 381.61 18.9942 380.487 19.4825C379.364 19.9707 378.371 20.6381 377.509 21.4844C376.646 22.3308 375.971 23.3317 375.482 24.4873C374.994 25.6429 374.75 26.8555 374.75 28.125H371.625C371.625 26.9369 371.788 25.7813 372.113 24.6582C372.439 23.5352 372.911 22.4935 373.529 21.5332C374.148 20.5729 374.888 19.7022 375.751 18.9209C376.614 18.1397 377.582 17.4805 378.656 16.9434C377.436 16.0645 376.483 14.9659 375.8 13.6475C375.116 12.3291 374.766 10.905 374.75 9.37503C374.75 8.08922 374.994 6.87666 375.482 5.73734C375.971 4.59801 376.638 3.60517 377.484 2.75882C378.331 1.91247 379.324 1.23701 380.463 0.732452C381.602 0.227895 382.823 -0.0162455 384.125 3.05176e-05C385.411 3.05176e-05 386.623 0.244171 387.763 0.732452C388.902 1.22073 389.895 1.88805 390.741 2.73441C391.588 3.58076 392.263 4.58174 392.768 5.73734C393.272 6.89293 393.516 8.1055 393.5 9.37503C393.5 10.905 393.158 12.3291 392.475 13.6475C391.791 14.9659 390.831 16.0645 389.594 16.9434C390.831 17.5619 391.938 18.3594 392.914 19.336C393.891 20.3125 394.688 21.4193 395.307 22.6563C396.186 21.4356 397.284 20.4834 398.603 19.7998C399.921 19.1162 401.345 18.7663 402.875 18.75C404.161 18.75 405.373 18.9942 406.513 19.4825C407.652 19.9707 408.645 20.6381 409.491 21.4844C410.338 22.3308 411.013 23.3317 411.518 24.4873C412.022 25.6429 412.266 26.8555 412.25 28.125C412.25 29.655 411.908 31.0791 411.225 32.3975C410.541 33.7159 409.581 34.8145 408.344 35.6934ZM384.125 15.625C384.988 15.625 385.793 15.4623 386.542 15.1367C387.291 14.8112 387.958 14.3636 388.544 13.794C389.13 13.2243 389.577 12.5651 389.887 11.8164C390.196 11.0677 390.359 10.2539 390.375 9.37503C390.375 8.5124 390.212 7.70674 389.887 6.95804C389.561 6.20934 389.114 5.54202 388.544 4.95609C387.974 4.37015 387.315 3.92256 386.566 3.61331C385.818 3.30407 385.004 3.14131 384.125 3.12503C383.262 3.12503 382.457 3.28779 381.708 3.61331C380.959 3.93883 380.292 4.38642 379.706 4.95609C379.12 5.52575 378.673 6.18493 378.363 6.93362C378.054 7.68232 377.891 8.49612 377.875 9.37503C377.875 10.2377 378.038 11.0433 378.363 11.792C378.689 12.5407 379.136 13.208 379.706 13.794C380.276 14.3799 380.935 14.8275 381.684 15.1367C382.432 15.446 383.246 15.6088 384.125 15.625ZM402.875 34.375C403.738 34.375 404.543 34.2123 405.292 33.8867C406.041 33.5612 406.708 33.1136 407.294 32.544C407.88 31.9743 408.327 31.3151 408.637 30.5664C408.946 29.8177 409.109 29.0039 409.125 28.125C409.125 27.2624 408.962 26.4567 408.637 25.708C408.311 24.9593 407.864 24.292 407.294 23.7061C406.724 23.1201 406.065 22.6726 405.316 22.3633C404.568 22.0541 403.754 21.8913 402.875 21.875C402.012 21.875 401.207 22.0378 400.458 22.3633C399.709 22.6888 399.042 23.1364 398.456 23.7061C397.87 24.2757 397.423 24.9349 397.113 25.6836C396.804 26.4323 396.641 27.2461 396.625 28.125C396.625 28.9877 396.788 29.7933 397.113 30.542C397.439 31.2907 397.886 31.958 398.456 32.544C399.026 33.1299 399.685 33.5775 400.434 33.8867C401.182 34.196 401.996 34.3588 402.875 34.375ZM406 6.25003H396.625V3.12503H409.125V15.625H406V6.25003Z" fill="black"/>
</g>
<defs>
<clipPath id="clip0_211_211">
<rect width="50" height="50" fill="white" transform="translate(368.5)"/>
</clipPath>
</defs>
</svg>
