<svg width="1095" height="569" viewBox="0 0 1095 569" fill="none" xmlns="http://www.w3.org/2000/svg">
<rect width="1094" height="569" transform="translate(0.5)" fill="url(#paint0_linear_186_519)"/>
<path d="M169.515 317.838H131.365C129.141 317.838 127.338 319.641 127.338 321.865V380.871C127.338 383.095 129.141 384.898 131.365 384.898H169.515C171.739 384.898 173.542 383.095 173.542 380.871V321.865C173.542 319.641 171.739 317.838 169.515 317.838Z" fill="#88B0EA"/>
<path d="M131.563 324.881H169.316V376.596H131.563V324.881Z" fill="white"/>
<path d="M152.25 380.751C152.176 383.144 148.703 383.143 148.629 380.751C148.703 378.358 152.177 378.359 152.25 380.751Z" fill="white"/>
<path d="M156.221 359.757L155.941 355.53C155.853 354.012 155.334 352.552 154.444 351.32C152.067 347.798 146.297 347.796 143.919 351.32C143.03 352.552 142.51 354.013 142.422 355.53L142.141 359.757C142.122 360.053 142.163 360.351 142.263 360.63C142.363 360.91 142.519 361.167 142.722 361.383C142.925 361.6 143.171 361.773 143.443 361.892C143.716 362.01 144.01 362.071 144.307 362.071C146.738 362.068 151.627 362.073 154.056 362.071C154.353 362.071 154.647 362.01 154.919 361.892C155.192 361.773 155.437 361.6 155.641 361.384C155.844 361.167 156 360.91 156.1 360.63C156.2 360.351 156.241 360.053 156.221 359.757Z" fill="#FF00C7"/>
<path d="M154.766 339.106C154.766 339.84 154.622 340.566 154.341 341.244C154.061 341.921 153.649 342.537 153.131 343.055C152.612 343.574 151.996 343.985 151.319 344.266C150.641 344.547 149.915 344.691 149.182 344.691C141.789 344.436 141.791 333.776 149.182 333.522C149.915 333.522 150.641 333.666 151.319 333.947C151.996 334.227 152.612 334.639 153.131 335.157C153.649 335.676 154.061 336.292 154.341 336.969C154.622 337.647 154.766 338.373 154.766 339.106Z" fill="#FF00C7"/>
<path d="M162.793 361.409C162.793 362.39 162.6 363.362 162.224 364.269C161.849 365.175 161.298 365.999 160.604 366.693C159.91 367.387 159.087 367.938 158.18 368.313C157.273 368.689 156.301 368.882 155.32 368.882C145.427 368.54 145.43 354.276 155.32 353.936C157.302 353.936 159.203 354.723 160.604 356.124C162.006 357.526 162.793 359.427 162.793 361.409Z" fill="white"/>
<path d="M157.492 360.571H156.158V359.237C156.158 359.015 156.07 358.802 155.913 358.644C155.756 358.487 155.542 358.399 155.32 358.399C155.098 358.399 154.884 358.487 154.727 358.644C154.57 358.802 154.482 359.015 154.482 359.237V360.571H153.148C152.926 360.571 152.713 360.659 152.556 360.816C152.398 360.973 152.31 361.187 152.31 361.409C152.31 361.631 152.398 361.844 152.556 362.002C152.713 362.159 152.926 362.247 153.148 362.247H154.482V363.581C154.482 363.803 154.57 364.016 154.727 364.173C154.884 364.331 155.098 364.419 155.32 364.419C155.542 364.419 155.756 364.331 155.913 364.173C156.07 364.016 156.158 363.803 156.158 363.581V362.247H157.492C158.594 362.228 158.593 360.589 157.492 360.571Z" fill="#83DB7D"/>
<path d="M151.279 321.38C151.26 322.482 149.621 322.481 149.602 321.38C149.621 320.278 151.26 320.278 151.279 321.38Z" fill="white"/>
<path d="M169.515 385.736H131.365C130.075 385.734 128.839 385.221 127.927 384.309C127.014 383.397 126.501 382.161 126.5 380.871V321.865C126.501 320.575 127.014 319.339 127.927 318.427C128.839 317.514 130.075 317.001 131.365 317H169.515C170.805 317.001 172.041 317.514 172.953 318.427C173.866 319.339 174.379 320.575 174.38 321.865V380.871C174.379 382.161 173.866 383.397 172.953 384.309C172.041 385.221 170.805 385.734 169.515 385.736ZM131.365 318.676C130.52 318.677 129.709 319.014 129.111 319.611C128.514 320.209 128.177 321.02 128.176 321.865V380.871C128.177 381.716 128.514 382.527 129.111 383.124C129.709 383.722 130.52 384.058 131.365 384.059H169.515C170.36 384.058 171.171 383.722 171.769 383.124C172.366 382.527 172.703 381.716 172.704 380.871V321.865C172.703 321.02 172.366 320.209 171.769 319.611C171.171 319.014 170.36 318.677 169.515 318.676H131.365Z" fill="#383A49"/>
<path d="M169.317 377.434H131.564C131.342 377.434 131.128 377.346 130.971 377.189C130.814 377.032 130.726 376.818 130.726 376.596V324.881C130.726 324.659 130.814 324.446 130.971 324.288C131.128 324.131 131.342 324.043 131.564 324.043H169.317C169.539 324.043 169.752 324.131 169.909 324.288C170.067 324.446 170.155 324.659 170.155 324.881V376.596C170.155 376.818 170.067 377.032 169.909 377.189C169.752 377.346 169.539 377.434 169.317 377.434ZM132.402 375.758H168.478V325.719H132.402V375.758Z" fill="#383A49"/>
<path d="M149.181 345.529C147.478 345.527 145.846 344.85 144.642 343.646C143.438 342.442 142.76 340.809 142.758 339.106C143.06 330.605 155.304 330.608 155.604 339.106C155.602 340.809 154.925 342.442 153.721 343.646C152.517 344.85 150.884 345.527 149.181 345.529ZM149.181 334.36C147.923 334.361 146.716 334.862 145.827 335.751C144.937 336.641 144.436 337.848 144.435 339.106C144.658 345.388 153.706 345.386 153.928 339.106C153.926 337.848 153.426 336.641 152.536 335.752C151.646 334.862 150.44 334.361 149.181 334.36Z" fill="#383A49"/>
<path d="M144.433 362.909H143.696C143.347 362.907 143.002 362.833 142.682 362.692C142.362 362.551 142.074 362.347 141.836 362.091C141.598 361.835 141.415 361.533 141.299 361.203C141.182 360.874 141.133 360.524 141.157 360.176L141.501 355.502C141.891 351.701 143.927 347.951 149.181 347.832C153.093 347.832 155.033 350.146 155.971 352.086C156.276 352.841 157.142 354.272 155.959 354.676C154.823 354.929 154.879 353.484 154.462 352.816C152.597 348.395 145.766 348.395 143.902 352.816C142.964 354.462 143.043 358.424 142.829 360.298C142.82 360.417 142.835 360.537 142.875 360.65C142.915 360.763 142.977 360.866 143.059 360.954C143.348 361.336 144.023 361.213 144.433 361.231C145.535 361.25 145.534 362.892 144.433 362.909Z" fill="#383A49"/>
<path d="M155.32 369.72C153.117 369.718 151.004 368.841 149.446 367.283C147.888 365.725 147.011 363.612 147.009 361.409C147.399 350.409 163.243 350.411 163.632 361.409C163.629 363.612 162.753 365.725 161.194 367.283C159.636 368.841 157.524 369.718 155.32 369.72ZM155.32 354.774C153.561 354.776 151.875 355.476 150.631 356.72C149.387 357.963 148.687 359.65 148.685 361.409C148.997 370.189 161.645 370.188 161.955 361.409C161.953 359.65 161.253 357.963 160.009 356.72C158.766 355.476 157.079 354.776 155.32 354.774Z" fill="#383A49"/>
<path fill-rule="evenodd" clip-rule="evenodd" d="M519.38 350.814V341.238C519.38 334.467 519.38 331.081 521.483 328.977C523.587 326.874 526.973 326.874 533.744 326.874H552.896C559.667 326.874 563.053 326.874 565.156 328.977C567.26 331.081 567.26 334.467 567.26 341.238V350.814C567.26 357.585 567.26 360.971 565.156 363.074C563.609 364.622 561.368 365.031 557.595 365.139C557.586 363.377 556.975 361.618 555.759 360.193C555.691 360.112 555.649 360.012 555.641 359.906C555.34 356.144 552.353 353.156 548.591 352.856C548.485 352.848 548.385 352.806 548.304 352.737C545.432 350.289 541.207 350.289 538.334 352.737C538.254 352.806 538.154 352.848 538.048 352.856C534.286 353.156 531.298 356.144 530.998 359.906C530.99 360.012 530.948 360.112 530.88 360.193C529.664 361.618 529.052 363.377 529.044 365.139C525.272 365.031 523.031 364.622 521.483 363.074C519.38 360.971 519.38 357.585 519.38 350.814ZM534.342 336.45C534.342 335.458 535.146 334.654 536.138 334.654H550.502C551.493 334.654 552.297 335.458 552.297 336.45C552.297 337.441 551.493 338.245 550.502 338.245H536.138C535.146 338.245 534.342 337.441 534.342 336.45ZM531.35 343.033C530.358 343.033 529.554 343.837 529.554 344.829C529.554 345.82 530.358 346.624 531.35 346.624H555.29C556.281 346.624 557.085 345.82 557.085 344.829C557.085 343.837 556.281 343.033 555.29 343.033H531.35Z" fill="#1C274D"/>
<path fill-rule="evenodd" clip-rule="evenodd" d="M545.976 355.471C544.445 354.166 542.194 354.166 540.664 355.471C540.008 356.029 539.193 356.367 538.334 356.436C536.33 356.596 534.738 358.187 534.578 360.192C534.509 361.051 534.172 361.866 533.613 362.522C532.309 364.052 532.309 366.303 533.613 367.833C534.172 368.489 534.509 369.304 534.578 370.163C534.738 372.168 536.33 373.759 538.334 373.919C539.193 373.987 540.008 374.325 540.664 374.884C542.194 376.188 544.445 376.188 545.976 374.884C546.631 374.325 547.447 373.987 548.305 373.919C550.31 373.759 551.901 372.168 552.061 370.163C552.13 369.304 552.468 368.489 553.026 367.833C554.331 366.303 554.331 364.052 553.026 362.522C552.468 361.866 552.13 361.051 552.061 360.192C551.901 358.187 550.31 356.596 548.305 356.436C547.447 356.367 546.631 356.029 545.976 355.471ZM548.136 364.096C548.861 363.42 548.9 362.284 548.224 361.559C547.547 360.834 546.411 360.795 545.686 361.471L541.781 365.116L540.954 364.344C540.229 363.667 539.093 363.707 538.416 364.432C537.74 365.157 537.779 366.293 538.504 366.969L540.556 368.884C541.246 369.528 542.316 369.528 543.006 368.884L548.136 364.096Z" fill="#1C274D"/>
<path d="M959.016 343.887H953.418L951.861 339.996C950.262 335.997 946.446 333.413 942.138 333.413H930.261C925.954 333.413 922.137 335.997 920.537 339.996L918.98 343.887H913.383C912.652 343.887 912.116 344.573 912.294 345.281L912.855 347.525C912.979 348.025 913.428 348.375 913.944 348.375H915.821C914.565 349.472 913.756 351.067 913.756 352.864V357.353C913.756 358.86 914.332 360.221 915.252 361.274V366.331C915.252 367.983 916.592 369.323 918.244 369.323H921.237C922.889 369.323 924.229 367.983 924.229 366.331V363.338H948.169V366.331C948.169 367.983 949.51 369.323 951.162 369.323H954.154C955.807 369.323 957.147 367.983 957.147 366.331V361.274C958.067 360.222 958.643 358.861 958.643 357.353V352.864C958.643 351.067 957.834 349.472 956.579 348.375H958.456C958.971 348.375 959.42 348.025 959.545 347.525L960.106 345.281C960.283 344.573 959.747 343.887 959.016 343.887ZM926.093 342.219C926.775 340.515 928.425 339.398 930.261 339.398H942.138C943.973 339.398 945.624 340.515 946.306 342.219L948.169 346.879H924.229L926.093 342.219ZM921.237 357.334C919.441 357.334 918.244 356.141 918.244 354.351C918.244 352.561 919.441 351.368 921.237 351.368C923.032 351.368 925.726 354.053 925.726 355.843C925.726 357.633 923.032 357.334 921.237 357.334ZM951.162 357.334C949.366 357.334 946.673 357.633 946.673 355.843C946.673 354.053 949.366 351.368 951.162 351.368C952.957 351.368 954.154 352.561 954.154 354.351C954.154 356.141 952.957 357.334 951.162 357.334Z" fill="#95035C"/>
<path d="M459.582 126.182V148H456.066L445.786 133.138H445.604V148H441.652V126.182H445.189L455.459 141.054H455.651V126.182H459.582ZM474.862 148.32C473.222 148.32 471.805 147.979 470.611 147.297C469.425 146.608 468.513 145.635 467.874 144.378C467.234 143.114 466.915 141.626 466.915 139.914C466.915 138.231 467.234 136.754 467.874 135.482C468.52 134.204 469.422 133.21 470.58 132.499C471.737 131.782 473.097 131.423 474.66 131.423C475.668 131.423 476.62 131.587 477.515 131.913C478.417 132.233 479.212 132.73 479.901 133.405C480.597 134.08 481.144 134.939 481.542 135.983C481.94 137.02 482.138 138.256 482.138 139.69V140.873H468.726V138.273H478.442C478.435 137.535 478.275 136.878 477.962 136.303C477.65 135.72 477.213 135.262 476.652 134.928C476.098 134.594 475.452 134.428 474.713 134.428C473.925 134.428 473.232 134.619 472.636 135.003C472.039 135.379 471.574 135.876 471.24 136.494C470.913 137.105 470.746 137.776 470.739 138.508V140.777C470.739 141.729 470.913 142.545 471.261 143.227C471.609 143.902 472.096 144.42 472.721 144.783C473.346 145.138 474.077 145.315 474.915 145.315C475.477 145.315 475.984 145.237 476.439 145.081C476.893 144.918 477.288 144.68 477.621 144.367C477.955 144.055 478.207 143.668 478.378 143.206L481.979 143.611C481.751 144.562 481.318 145.393 480.679 146.104C480.047 146.807 479.237 147.354 478.25 147.744C477.263 148.128 476.133 148.32 474.862 148.32ZM496.545 148.32C494.905 148.32 493.488 147.979 492.295 147.297C491.109 146.608 490.196 145.635 489.557 144.378C488.918 143.114 488.598 141.626 488.598 139.914C488.598 138.231 488.918 136.754 489.557 135.482C490.203 134.204 491.105 133.21 492.263 132.499C493.42 131.782 494.78 131.423 496.343 131.423C497.351 131.423 498.303 131.587 499.198 131.913C500.1 132.233 500.896 132.73 501.584 133.405C502.28 134.08 502.827 134.939 503.225 135.983C503.623 137.02 503.822 138.256 503.822 139.69V140.873H490.409V138.273H500.125C500.118 137.535 499.958 136.878 499.646 136.303C499.333 135.72 498.896 135.262 498.335 134.928C497.781 134.594 497.135 134.428 496.396 134.428C495.608 134.428 494.915 134.619 494.319 135.003C493.722 135.379 493.257 135.876 492.923 136.494C492.597 137.105 492.43 137.776 492.423 138.508V140.777C492.423 141.729 492.597 142.545 492.945 143.227C493.293 143.902 493.779 144.42 494.404 144.783C495.029 145.138 495.761 145.315 496.599 145.315C497.16 145.315 497.668 145.237 498.122 145.081C498.577 144.918 498.971 144.68 499.305 144.367C499.638 144.055 499.891 143.668 500.061 143.206L503.662 143.611C503.435 144.562 503.001 145.393 502.362 146.104C501.73 146.807 500.92 147.354 499.933 147.744C498.946 148.128 497.817 148.32 496.545 148.32ZM517.057 148.288C515.771 148.288 514.621 147.957 513.605 147.297C512.589 146.636 511.787 145.678 511.197 144.42C510.608 143.163 510.313 141.636 510.313 139.839C510.313 138.021 510.611 136.487 511.208 135.237C511.812 133.98 512.625 133.032 513.648 132.393C514.67 131.746 515.81 131.423 517.067 131.423C518.026 131.423 518.815 131.587 519.432 131.913C520.05 132.233 520.54 132.62 520.903 133.075C521.265 133.522 521.545 133.945 521.744 134.342H521.904V126.182H525.771V148H521.979V145.422H521.744C521.545 145.82 521.258 146.242 520.881 146.69C520.505 147.13 520.008 147.506 519.39 147.819C518.772 148.131 517.994 148.288 517.057 148.288ZM518.133 145.124C518.949 145.124 519.645 144.903 520.221 144.463C520.796 144.016 521.233 143.394 521.531 142.599C521.829 141.803 521.979 140.876 521.979 139.818C521.979 138.76 521.829 137.84 521.531 137.059C521.24 136.278 520.807 135.67 520.231 135.237C519.663 134.804 518.964 134.587 518.133 134.587C517.273 134.587 516.556 134.811 515.981 135.259C515.405 135.706 514.972 136.324 514.681 137.112C514.39 137.901 514.244 138.803 514.244 139.818C514.244 140.841 514.39 141.754 514.681 142.556C514.979 143.352 515.416 143.98 515.991 144.442C516.574 144.896 517.288 145.124 518.133 145.124ZM549.831 148.33C548.794 148.33 547.86 148.146 547.029 147.776C546.205 147.4 545.552 146.846 545.069 146.114C544.593 145.383 544.355 144.481 544.355 143.408C544.355 142.485 544.526 141.722 544.866 141.118C545.207 140.514 545.673 140.031 546.262 139.669C546.852 139.307 547.516 139.033 548.254 138.849C549 138.657 549.771 138.518 550.566 138.433C551.525 138.334 552.303 138.245 552.899 138.167C553.496 138.082 553.929 137.954 554.199 137.783C554.476 137.606 554.614 137.332 554.614 136.963V136.899C554.614 136.097 554.376 135.475 553.901 135.035C553.425 134.594 552.739 134.374 551.844 134.374C550.9 134.374 550.151 134.58 549.597 134.992C549.05 135.404 548.68 135.891 548.489 136.452L544.888 135.94C545.172 134.946 545.641 134.115 546.294 133.447C546.947 132.773 547.746 132.268 548.691 131.935C549.636 131.594 550.68 131.423 551.823 131.423C552.612 131.423 553.396 131.516 554.178 131.7C554.959 131.885 555.673 132.19 556.319 132.616C556.965 133.036 557.484 133.607 557.874 134.332C558.272 135.056 558.471 135.962 558.471 137.048V148H554.763V145.752H554.636C554.401 146.207 554.071 146.633 553.645 147.031C553.226 147.421 552.697 147.737 552.058 147.979C551.425 148.213 550.683 148.33 549.831 148.33ZM550.832 145.496C551.607 145.496 552.278 145.344 552.846 145.038C553.414 144.726 553.851 144.314 554.156 143.803C554.469 143.291 554.625 142.734 554.625 142.13V140.202C554.504 140.301 554.298 140.393 554.007 140.479C553.723 140.564 553.403 140.638 553.048 140.702C552.693 140.766 552.342 140.823 551.994 140.873C551.646 140.923 551.344 140.965 551.088 141.001C550.513 141.079 549.998 141.207 549.543 141.384C549.089 141.562 548.73 141.81 548.467 142.13C548.205 142.442 548.073 142.847 548.073 143.344C548.073 144.055 548.332 144.591 548.851 144.953C549.369 145.315 550.03 145.496 550.832 145.496ZM596.436 133.543H592.452C592.338 132.89 592.128 132.311 591.823 131.807C591.518 131.295 591.138 130.862 590.683 130.507C590.229 130.152 589.71 129.886 589.128 129.708C588.552 129.523 587.931 129.431 587.263 129.431C586.077 129.431 585.026 129.729 584.11 130.326C583.194 130.915 582.476 131.782 581.958 132.925C581.44 134.062 581.18 135.45 581.18 137.091C581.18 138.76 581.44 140.166 581.958 141.31C582.484 142.446 583.201 143.305 584.11 143.888C585.026 144.463 586.074 144.751 587.253 144.751C587.906 144.751 588.517 144.665 589.085 144.495C589.66 144.317 590.175 144.058 590.63 143.717C591.092 143.376 591.479 142.957 591.791 142.46C592.111 141.963 592.331 141.395 592.452 140.756L596.436 140.777C596.287 141.814 595.964 142.787 595.467 143.696C594.976 144.605 594.334 145.408 593.538 146.104C592.743 146.793 591.812 147.332 590.747 147.723C589.682 148.107 588.499 148.298 587.2 148.298C585.282 148.298 583.57 147.854 582.065 146.967C580.559 146.079 579.373 144.797 578.506 143.121C577.64 141.445 577.207 139.435 577.207 137.091C577.207 134.74 577.643 132.73 578.517 131.061C579.391 129.385 580.58 128.103 582.086 127.215C583.592 126.327 585.296 125.884 587.2 125.884C588.414 125.884 589.543 126.054 590.587 126.395C591.631 126.736 592.562 127.237 593.378 127.897C594.195 128.55 594.866 129.353 595.392 130.305C595.925 131.249 596.273 132.329 596.436 133.543ZM608.494 148.33C607.457 148.33 606.523 148.146 605.692 147.776C604.868 147.4 604.215 146.846 603.732 146.114C603.256 145.383 603.018 144.481 603.018 143.408C603.018 142.485 603.188 141.722 603.529 141.118C603.87 140.514 604.335 140.031 604.925 139.669C605.514 139.307 606.179 139.033 606.917 138.849C607.663 138.657 608.433 138.518 609.229 138.433C610.188 138.334 610.965 138.245 611.562 138.167C612.159 138.082 612.592 137.954 612.862 137.783C613.139 137.606 613.277 137.332 613.277 136.963V136.899C613.277 136.097 613.039 135.475 612.563 135.035C612.088 134.594 611.402 134.374 610.507 134.374C609.563 134.374 608.813 134.58 608.259 134.992C607.713 135.404 607.343 135.891 607.152 136.452L603.551 135.94C603.835 134.946 604.304 134.115 604.957 133.447C605.61 132.773 606.409 132.268 607.354 131.935C608.299 131.594 609.343 131.423 610.486 131.423C611.274 131.423 612.059 131.516 612.84 131.7C613.622 131.885 614.335 132.19 614.982 132.616C615.628 133.036 616.147 133.607 616.537 134.332C616.935 135.056 617.134 135.962 617.134 137.048V148H613.426V145.752H613.299C613.064 146.207 612.734 146.633 612.308 147.031C611.889 147.421 611.36 147.737 610.72 147.979C610.088 148.213 609.346 148.33 608.494 148.33ZM609.495 145.496C610.269 145.496 610.941 145.344 611.509 145.038C612.077 144.726 612.514 144.314 612.819 143.803C613.132 143.291 613.288 142.734 613.288 142.13V140.202C613.167 140.301 612.961 140.393 612.67 140.479C612.386 140.564 612.066 140.638 611.711 140.702C611.356 140.766 611.005 140.823 610.656 140.873C610.308 140.923 610.007 140.965 609.751 141.001C609.176 141.079 608.661 141.207 608.206 141.384C607.752 141.562 607.393 141.81 607.13 142.13C606.867 142.442 606.736 142.847 606.736 143.344C606.736 144.055 606.995 144.591 607.514 144.953C608.032 145.315 608.693 145.496 609.495 145.496ZM624.912 148V131.636H628.651V134.364H628.821C629.12 133.419 629.631 132.691 630.356 132.18C631.087 131.661 631.922 131.402 632.859 131.402C633.072 131.402 633.31 131.413 633.573 131.434C633.843 131.448 634.066 131.473 634.244 131.509V135.056C634.081 134.999 633.821 134.95 633.466 134.907C633.118 134.857 632.781 134.832 632.454 134.832C631.751 134.832 631.119 134.985 630.558 135.29C630.004 135.589 629.567 136.004 629.248 136.537C628.928 137.07 628.768 137.684 628.768 138.38V148H624.912ZM644.392 141.587V141.31C644.399 140.024 644.52 139.001 644.754 138.241C644.996 137.482 645.337 136.871 645.777 136.409C646.218 135.94 646.754 135.511 647.386 135.12C647.819 134.85 648.206 134.555 648.547 134.236C648.895 133.909 649.169 133.547 649.367 133.149C649.566 132.744 649.666 132.293 649.666 131.796C649.666 131.235 649.534 130.749 649.271 130.337C649.009 129.925 648.654 129.605 648.206 129.378C647.766 129.151 647.272 129.037 646.725 129.037C646.221 129.037 645.742 129.147 645.287 129.367C644.84 129.58 644.467 129.907 644.169 130.347C643.877 130.781 643.714 131.331 643.678 131.999H639.886C639.921 130.649 640.248 129.52 640.866 128.611C641.491 127.702 642.315 127.02 643.338 126.565C644.367 126.111 645.504 125.884 646.747 125.884C648.103 125.884 649.296 126.121 650.326 126.597C651.363 127.073 652.169 127.751 652.744 128.632C653.327 129.506 653.618 130.543 653.618 131.743C653.618 132.553 653.487 133.277 653.224 133.916C652.968 134.555 652.602 135.124 652.127 135.621C651.651 136.118 651.086 136.562 650.433 136.952C649.857 137.308 649.385 137.677 649.016 138.06C648.654 138.444 648.384 138.895 648.206 139.413C648.036 139.925 647.947 140.557 647.94 141.31V141.587H644.392ZM646.246 148.234C645.607 148.234 645.056 148.007 644.595 147.553C644.133 147.098 643.902 146.544 643.902 145.891C643.902 145.251 644.133 144.705 644.595 144.25C645.056 143.795 645.607 143.568 646.246 143.568C646.878 143.568 647.425 143.795 647.887 144.25C648.355 144.705 648.59 145.251 648.59 145.891C648.59 146.324 648.48 146.718 648.259 147.073C648.046 147.428 647.762 147.712 647.407 147.925C647.059 148.131 646.672 148.234 646.246 148.234Z" fill="black"/>
<path d="M26.142 459V437.182H33.5142C35.2188 437.182 36.6179 437.473 37.7116 438.055C38.8054 438.631 39.6151 439.423 40.1406 440.431C40.6662 441.44 40.929 442.587 40.929 443.872C40.929 445.158 40.6662 446.298 40.1406 447.292C39.6151 448.286 38.8089 449.067 37.7223 449.636C36.6357 450.197 35.2472 450.477 33.5568 450.477H27.5909V448.091H33.4716C34.6364 448.091 35.5739 447.92 36.2841 447.58C37.0014 447.239 37.5199 446.756 37.8395 446.131C38.1662 445.499 38.3295 444.746 38.3295 443.872C38.3295 442.999 38.1662 442.235 37.8395 441.582C37.5128 440.928 36.9908 440.424 36.2734 440.069C35.5561 439.707 34.608 439.526 33.429 439.526H28.7841V459H26.142ZM36.4119 449.199L41.7812 459H38.7131L33.429 449.199H36.4119ZM55.5756 459.341C53.9989 459.341 52.6388 458.993 51.4953 458.297C50.359 457.594 49.4819 456.614 48.864 455.357C48.2532 454.092 47.9478 452.622 47.9478 450.946C47.9478 449.27 48.2532 447.793 48.864 446.514C49.4819 445.229 50.3412 444.227 51.4421 443.51C52.55 442.786 53.8426 442.423 55.3199 442.423C56.1722 442.423 57.0138 442.565 57.8448 442.849C58.6757 443.134 59.4321 443.595 60.114 444.234C60.7958 444.866 61.3391 445.705 61.7439 446.749C62.1488 447.793 62.3512 449.078 62.3512 450.605V451.67H49.7375V449.497H59.7944C59.7944 448.574 59.6097 447.75 59.2404 447.026C58.8782 446.301 58.3597 445.729 57.685 445.31C57.0174 444.891 56.229 444.682 55.3199 444.682C54.3185 444.682 53.452 444.93 52.7205 445.428C51.9961 445.918 51.4385 446.557 51.0479 447.345C50.6573 448.134 50.462 448.979 50.462 449.881V451.33C50.462 452.565 50.675 453.613 51.1012 454.472C51.5344 455.325 52.1346 455.974 52.9016 456.422C53.6686 456.862 54.56 457.082 55.5756 457.082C56.2361 457.082 56.8327 456.99 57.3654 456.805C57.9051 456.614 58.3703 456.33 58.761 455.953C59.1516 455.57 59.4534 455.094 59.6665 454.526L62.0955 455.207C61.8398 456.031 61.4101 456.756 60.8064 457.381C60.2027 457.999 59.457 458.482 58.5692 458.83C57.6814 459.17 56.6836 459.341 55.5756 459.341ZM76.6809 465.477C75.4664 465.477 74.4223 465.321 73.5488 465.009C72.6752 464.703 71.9472 464.298 71.3648 463.794C70.7895 463.297 70.3314 462.764 69.9905 462.196L71.9934 460.79C72.2206 461.088 72.5083 461.429 72.8563 461.812C73.2043 462.203 73.6801 462.54 74.2838 462.825C74.8946 463.116 75.6936 463.261 76.6809 463.261C78.0019 463.261 79.0921 462.942 79.9515 462.303C80.8108 461.663 81.2405 460.662 81.2405 459.298V455.974H81.0274C80.8428 456.273 80.58 456.642 80.2391 457.082C79.9053 457.516 79.4223 457.903 78.7902 458.244C78.1652 458.577 77.3201 458.744 76.2547 458.744C74.9337 458.744 73.7476 458.432 72.6965 457.807C71.6524 457.182 70.825 456.273 70.2142 455.08C69.6105 453.886 69.3087 452.437 69.3087 450.733C69.3087 449.057 69.6034 447.597 70.1929 446.354C70.7824 445.104 71.6027 444.138 72.6539 443.457C73.705 442.768 74.9195 442.423 76.2973 442.423C77.3627 442.423 78.2078 442.601 78.8328 442.956C79.465 443.304 79.9479 443.702 80.2817 444.149C80.6226 444.589 80.8854 444.952 81.0701 445.236H81.3257V442.636H83.7547V459.469C83.7547 460.875 83.4351 462.018 82.7959 462.899C82.1638 463.787 81.3115 464.437 80.2391 464.849C79.1738 465.268 77.9877 465.477 76.6809 465.477ZM76.5956 456.486C77.6042 456.486 78.4564 456.255 79.1524 455.793C79.8485 455.332 80.3776 454.668 80.7398 453.801C81.102 452.935 81.2831 451.898 81.2831 450.69C81.2831 449.511 81.1056 448.471 80.7505 447.569C80.3953 446.667 79.8698 445.96 79.1738 445.449C78.4777 444.937 77.6184 444.682 76.5956 444.682C75.5303 444.682 74.6425 444.952 73.9323 445.491C73.2292 446.031 72.7 446.756 72.3449 447.665C71.9969 448.574 71.8229 449.582 71.8229 450.69C71.8229 451.827 72.0005 452.832 72.3556 453.705C72.7178 454.572 73.2505 455.254 73.9536 455.751C74.6638 456.241 75.5445 456.486 76.5956 456.486ZM92.257 459V442.636H94.7712V459H92.257ZM93.5354 439.909C93.0453 439.909 92.6228 439.742 92.2676 439.408C91.9196 439.075 91.7456 438.673 91.7456 438.205C91.7456 437.736 91.9196 437.335 92.2676 437.001C92.6228 436.667 93.0453 436.5 93.5354 436.5C94.0255 436.5 94.4445 436.667 94.7925 437.001C95.1476 437.335 95.3252 437.736 95.3252 438.205C95.3252 438.673 95.1476 439.075 94.7925 439.408C94.4445 439.742 94.0255 439.909 93.5354 439.909ZM114.867 446.301L112.609 446.94C112.466 446.564 112.257 446.198 111.98 445.843C111.71 445.481 111.341 445.183 110.872 444.948C110.403 444.714 109.803 444.597 109.072 444.597C108.07 444.597 107.236 444.827 106.568 445.289C105.908 445.744 105.577 446.322 105.577 447.026C105.577 447.651 105.805 448.144 106.259 448.506C106.714 448.869 107.424 449.17 108.39 449.412L110.819 450.009C112.282 450.364 113.372 450.907 114.089 451.638C114.807 452.363 115.165 453.297 115.165 454.44C115.165 455.378 114.895 456.216 114.356 456.955C113.823 457.693 113.077 458.276 112.118 458.702C111.16 459.128 110.045 459.341 108.773 459.341C107.104 459.341 105.723 458.979 104.629 458.254C103.535 457.53 102.843 456.472 102.552 455.08L104.938 454.483C105.165 455.364 105.595 456.024 106.227 456.464C106.866 456.905 107.701 457.125 108.731 457.125C109.903 457.125 110.833 456.876 111.522 456.379C112.218 455.875 112.566 455.271 112.566 454.568C112.566 454 112.367 453.524 111.969 453.141C111.572 452.75 110.961 452.459 110.137 452.267L107.41 451.628C105.911 451.273 104.81 450.722 104.107 449.977C103.411 449.224 103.063 448.283 103.063 447.153C103.063 446.23 103.322 445.413 103.841 444.703C104.366 443.993 105.08 443.435 105.982 443.031C106.891 442.626 107.921 442.423 109.072 442.423C110.691 442.423 111.962 442.778 112.886 443.489C113.816 444.199 114.476 445.136 114.867 446.301ZM129.966 442.636V444.767H121.486V442.636H129.966ZM123.958 438.716H126.472V454.312C126.472 455.023 126.575 455.555 126.781 455.911C126.994 456.259 127.264 456.493 127.591 456.614C127.925 456.727 128.276 456.784 128.645 456.784C128.922 456.784 129.15 456.77 129.327 456.741C129.505 456.706 129.647 456.678 129.753 456.656L130.265 458.915C130.094 458.979 129.856 459.043 129.551 459.107C129.246 459.178 128.858 459.213 128.39 459.213C127.68 459.213 126.983 459.06 126.302 458.755C125.627 458.45 125.066 457.984 124.618 457.359C124.178 456.734 123.958 455.946 123.958 454.994V438.716ZM144.333 459.341C142.757 459.341 141.397 458.993 140.253 458.297C139.117 457.594 138.24 456.614 137.622 455.357C137.011 454.092 136.706 452.622 136.706 450.946C136.706 449.27 137.011 447.793 137.622 446.514C138.24 445.229 139.099 444.227 140.2 443.51C141.308 442.786 142.6 442.423 144.078 442.423C144.93 442.423 145.772 442.565 146.603 442.849C147.434 443.134 148.19 443.595 148.872 444.234C149.554 444.866 150.097 445.705 150.502 446.749C150.907 447.793 151.109 449.078 151.109 450.605V451.67H138.495V449.497H148.552C148.552 448.574 148.368 447.75 147.998 447.026C147.636 446.301 147.118 445.729 146.443 445.31C145.775 444.891 144.987 444.682 144.078 444.682C143.076 444.682 142.21 444.93 141.478 445.428C140.754 445.918 140.196 446.557 139.806 447.345C139.415 448.134 139.22 448.979 139.22 449.881V451.33C139.22 452.565 139.433 453.613 139.859 454.472C140.292 455.325 140.892 455.974 141.659 456.422C142.426 456.862 143.318 457.082 144.333 457.082C144.994 457.082 145.591 456.99 146.123 456.805C146.663 456.614 147.128 456.33 147.519 455.953C147.909 455.57 148.211 455.094 148.424 454.526L150.853 455.207C150.598 456.031 150.168 456.756 149.564 457.381C148.961 457.999 148.215 458.482 147.327 458.83C146.439 459.17 145.441 459.341 144.333 459.341ZM158.834 459V442.636H161.263V445.108H161.433C161.731 444.298 162.271 443.641 163.052 443.137C163.834 442.633 164.714 442.381 165.694 442.381C165.879 442.381 166.11 442.384 166.387 442.391C166.664 442.398 166.873 442.409 167.015 442.423V444.98C166.93 444.959 166.735 444.927 166.429 444.884C166.131 444.835 165.815 444.81 165.481 444.81C164.686 444.81 163.976 444.977 163.351 445.31C162.733 445.637 162.243 446.092 161.88 446.674C161.525 447.249 161.348 447.906 161.348 448.645V459H158.834ZM192.881 459.341C191.404 459.341 190.107 458.989 188.992 458.286C187.884 457.583 187.018 456.599 186.393 455.335C185.775 454.071 185.466 452.594 185.466 450.903C185.466 449.199 185.775 447.711 186.393 446.44C187.018 445.168 187.884 444.181 188.992 443.478C190.107 442.775 191.404 442.423 192.881 442.423C194.358 442.423 195.651 442.775 196.759 443.478C197.874 444.181 198.74 445.168 199.358 446.44C199.983 447.711 200.296 449.199 200.296 450.903C200.296 452.594 199.983 454.071 199.358 455.335C198.74 456.599 197.874 457.583 196.759 458.286C195.651 458.989 194.358 459.341 192.881 459.341ZM192.881 457.082C194.003 457.082 194.926 456.795 195.651 456.219C196.375 455.644 196.911 454.888 197.259 453.95C197.607 453.013 197.781 451.997 197.781 450.903C197.781 449.81 197.607 448.79 197.259 447.846C196.911 446.901 196.375 446.138 195.651 445.555C194.926 444.973 194.003 444.682 192.881 444.682C191.759 444.682 190.835 444.973 190.111 445.555C189.387 446.138 188.85 446.901 188.502 447.846C188.154 448.79 187.98 449.81 187.98 450.903C187.98 451.997 188.154 453.013 188.502 453.95C188.85 454.888 189.387 455.644 190.111 456.219C190.835 456.795 191.759 457.082 192.881 457.082ZM210.548 449.156V459H208.034V442.636H210.463V445.193H210.676C211.059 444.362 211.642 443.695 212.423 443.19C213.204 442.679 214.213 442.423 215.448 442.423C216.556 442.423 217.526 442.651 218.357 443.105C219.188 443.553 219.834 444.234 220.296 445.151C220.757 446.06 220.988 447.21 220.988 448.602V459H218.474V448.773C218.474 447.487 218.14 446.486 217.472 445.768C216.805 445.044 215.889 444.682 214.724 444.682C213.921 444.682 213.204 444.856 212.572 445.204C211.947 445.552 211.453 446.06 211.091 446.727C210.729 447.395 210.548 448.205 210.548 449.156ZM231.997 437.182V459H229.482V437.182H231.997ZM240.502 459V442.636H243.016V459H240.502ZM241.78 439.909C241.29 439.909 240.867 439.742 240.512 439.408C240.164 439.075 239.99 438.673 239.99 438.205C239.99 437.736 240.164 437.335 240.512 437.001C240.867 436.667 241.29 436.5 241.78 436.5C242.27 436.5 242.689 436.667 243.037 437.001C243.392 437.335 243.57 437.736 243.57 438.205C243.57 438.673 243.392 439.075 243.037 439.408C242.689 439.742 242.27 439.909 241.78 439.909ZM254.035 449.156V459H251.521V442.636H253.95V445.193H254.163C254.546 444.362 255.129 443.695 255.91 443.19C256.691 442.679 257.7 442.423 258.935 442.423C260.043 442.423 261.013 442.651 261.844 443.105C262.675 443.553 263.321 444.234 263.783 445.151C264.244 446.06 264.475 447.21 264.475 448.602V459H261.961V448.773C261.961 447.487 261.627 446.486 260.96 445.768C260.292 445.044 259.376 444.682 258.211 444.682C257.408 444.682 256.691 444.856 256.059 445.204C255.434 445.552 254.94 446.06 254.578 446.727C254.216 447.395 254.035 448.205 254.035 449.156ZM279.83 459.341C278.254 459.341 276.894 458.993 275.75 458.297C274.614 457.594 273.737 456.614 273.119 455.357C272.508 454.092 272.202 452.622 272.202 450.946C272.202 449.27 272.508 447.793 273.119 446.514C273.737 445.229 274.596 444.227 275.697 443.51C276.805 442.786 278.097 442.423 279.575 442.423C280.427 442.423 281.269 442.565 282.099 442.849C282.93 443.134 283.687 443.595 284.369 444.234C285.05 444.866 285.594 445.705 285.999 446.749C286.403 447.793 286.606 449.078 286.606 450.605V451.67H273.992V449.497H284.049C284.049 448.574 283.864 447.75 283.495 447.026C283.133 446.301 282.614 445.729 281.94 445.31C281.272 444.891 280.484 444.682 279.575 444.682C278.573 444.682 277.707 444.93 276.975 445.428C276.251 445.918 275.693 446.557 275.303 447.345C274.912 448.134 274.717 448.979 274.717 449.881V451.33C274.717 452.565 274.93 453.613 275.356 454.472C275.789 455.325 276.389 455.974 277.156 456.422C277.923 456.862 278.815 457.082 279.83 457.082C280.491 457.082 281.087 456.99 281.62 456.805C282.16 456.614 282.625 456.33 283.016 455.953C283.406 455.57 283.708 455.094 283.921 454.526L286.35 455.207C286.095 456.031 285.665 456.756 285.061 457.381C284.457 457.999 283.712 458.482 282.824 458.83C281.936 459.17 280.938 459.341 279.83 459.341Z" fill="black"/>
<path d="M468.057 444C467.822 443.283 467.513 442.64 467.13 442.072C466.754 441.496 466.303 441.006 465.777 440.602C465.259 440.197 464.669 439.888 464.009 439.675C463.348 439.462 462.624 439.355 461.835 439.355C460.543 439.355 459.367 439.689 458.309 440.357C457.251 441.024 456.409 442.008 455.784 443.308C455.159 444.607 454.847 446.202 454.847 448.091C454.847 449.98 455.163 451.575 455.795 452.874C456.427 454.174 457.283 455.158 458.362 455.825C459.442 456.493 460.656 456.827 462.006 456.827C463.256 456.827 464.357 456.56 465.308 456.028C466.267 455.488 467.013 454.728 467.545 453.748C468.085 452.761 468.355 451.599 468.355 450.264L469.165 450.435H462.602V448.091H470.912V450.435C470.912 452.232 470.528 453.794 469.761 455.122C469.001 456.45 467.95 457.48 466.608 458.212C465.273 458.936 463.739 459.298 462.006 459.298C460.074 459.298 458.376 458.844 456.913 457.935C455.457 457.026 454.321 455.733 453.504 454.057C452.695 452.381 452.29 450.392 452.29 448.091C452.29 446.365 452.521 444.813 452.982 443.435C453.451 442.05 454.112 440.871 454.964 439.898C455.816 438.925 456.825 438.18 457.989 437.661C459.154 437.143 460.436 436.884 461.835 436.884C462.986 436.884 464.058 437.058 465.053 437.406C466.054 437.746 466.945 438.233 467.727 438.865C468.515 439.49 469.172 440.239 469.697 441.113C470.223 441.979 470.585 442.942 470.784 444H468.057ZM485.857 459.341C484.28 459.341 482.92 458.993 481.777 458.297C480.64 457.594 479.763 456.614 479.145 455.357C478.534 454.092 478.229 452.622 478.229 450.946C478.229 449.27 478.534 447.793 479.145 446.514C479.763 445.229 480.622 444.227 481.723 443.51C482.831 442.786 484.124 442.423 485.601 442.423C486.453 442.423 487.295 442.565 488.126 442.849C488.957 443.134 489.713 443.595 490.395 444.234C491.077 444.866 491.62 445.705 492.025 446.749C492.43 447.793 492.632 449.078 492.632 450.605V451.67H480.019V449.497H490.076C490.076 448.574 489.891 447.75 489.522 447.026C489.159 446.301 488.641 445.729 487.966 445.31C487.299 444.891 486.51 444.682 485.601 444.682C484.6 444.682 483.733 444.93 483.002 445.428C482.277 445.918 481.72 446.557 481.329 447.345C480.939 448.134 480.743 448.979 480.743 449.881V451.33C480.743 452.565 480.956 453.613 481.382 454.472C481.816 455.325 482.416 455.974 483.183 456.422C483.95 456.862 484.841 457.082 485.857 457.082C486.517 457.082 487.114 456.99 487.647 456.805C488.186 456.614 488.652 456.33 489.042 455.953C489.433 455.57 489.735 455.094 489.948 454.526L492.377 455.207C492.121 456.031 491.691 456.756 491.088 457.381C490.484 457.999 489.738 458.482 488.85 458.83C487.963 459.17 486.965 459.341 485.857 459.341ZM507.473 442.636V444.767H498.993V442.636H507.473ZM501.465 438.716H503.979V454.312C503.979 455.023 504.082 455.555 504.288 455.911C504.501 456.259 504.771 456.493 505.098 456.614C505.432 456.727 505.783 456.784 506.152 456.784C506.429 456.784 506.657 456.77 506.834 456.741C507.012 456.706 507.154 456.678 507.26 456.656L507.772 458.915C507.601 458.979 507.363 459.043 507.058 459.107C506.753 459.178 506.366 459.213 505.897 459.213C505.187 459.213 504.491 459.06 503.809 458.755C503.134 458.45 502.573 457.984 502.125 457.359C501.685 456.734 501.465 455.946 501.465 454.994V438.716ZM540.874 442.636L534.822 459H532.266L526.215 442.636H528.942L533.459 455.676H533.629L538.146 442.636H540.874ZM554.367 459.341C552.79 459.341 551.43 458.993 550.287 458.297C549.15 457.594 548.273 456.614 547.655 455.357C547.045 454.092 546.739 452.622 546.739 450.946C546.739 449.27 547.045 447.793 547.655 446.514C548.273 445.229 549.133 444.227 550.233 443.51C551.341 442.786 552.634 442.423 554.111 442.423C554.964 442.423 555.805 442.565 556.636 442.849C557.467 443.134 558.224 443.595 558.905 444.234C559.587 444.866 560.131 445.705 560.535 446.749C560.94 447.793 561.143 449.078 561.143 450.605V451.67H548.529V449.497H558.586C558.586 448.574 558.401 447.75 558.032 447.026C557.67 446.301 557.151 445.729 556.476 445.31C555.809 444.891 555.02 444.682 554.111 444.682C553.11 444.682 552.243 444.93 551.512 445.428C550.787 445.918 550.23 446.557 549.839 447.345C549.449 448.134 549.253 448.979 549.253 449.881V451.33C549.253 452.565 549.466 453.613 549.893 454.472C550.326 455.325 550.926 455.974 551.693 456.422C552.46 456.862 553.351 457.082 554.367 457.082C555.028 457.082 555.624 456.99 556.157 456.805C556.697 456.614 557.162 456.33 557.552 455.953C557.943 455.57 558.245 455.094 558.458 454.526L560.887 455.207C560.631 456.031 560.202 456.756 559.598 457.381C558.994 457.999 558.248 458.482 557.361 458.83C556.473 459.17 555.475 459.341 554.367 459.341ZM568.867 459V442.636H571.296V445.108H571.467C571.765 444.298 572.305 443.641 573.086 443.137C573.867 442.633 574.748 442.381 575.728 442.381C575.913 442.381 576.143 442.384 576.42 442.391C576.697 442.398 576.907 442.409 577.049 442.423V444.98C576.964 444.959 576.768 444.927 576.463 444.884C576.165 444.835 575.849 444.81 575.515 444.81C574.719 444.81 574.009 444.977 573.384 445.31C572.766 445.637 572.276 446.092 571.914 446.674C571.559 447.249 571.381 447.906 571.381 448.645V459H568.867ZM583.929 459V442.636H586.443V459H583.929ZM585.208 439.909C584.718 439.909 584.295 439.742 583.94 439.408C583.592 439.075 583.418 438.673 583.418 438.205C583.418 437.736 583.592 437.335 583.94 437.001C584.295 436.667 584.718 436.5 585.208 436.5C585.698 436.5 586.117 436.667 586.465 437.001C586.82 437.335 586.997 437.736 586.997 438.205C586.997 438.673 586.82 439.075 586.465 439.408C586.117 439.742 585.698 439.909 585.208 439.909ZM602.235 442.636V444.767H593.414V442.636H602.235ZM596.056 459V440.378C596.056 439.44 596.277 438.659 596.717 438.034C597.157 437.409 597.729 436.94 598.432 436.628C599.135 436.315 599.877 436.159 600.659 436.159C601.277 436.159 601.781 436.209 602.171 436.308C602.562 436.408 602.853 436.5 603.045 436.585L602.321 438.759C602.193 438.716 602.015 438.663 601.788 438.599C601.568 438.535 601.277 438.503 600.914 438.503C600.083 438.503 599.483 438.712 599.114 439.131C598.752 439.55 598.571 440.165 598.571 440.974V459H596.056ZM609.659 459V442.636H612.173V459H609.659ZM610.937 439.909C610.447 439.909 610.025 439.742 609.67 439.408C609.322 439.075 609.148 438.673 609.148 438.205C609.148 437.736 609.322 437.335 609.67 437.001C610.025 436.667 610.447 436.5 610.937 436.5C611.427 436.5 611.846 436.667 612.194 437.001C612.55 437.335 612.727 437.736 612.727 438.205C612.727 438.673 612.55 439.075 612.194 439.408C611.846 439.742 611.427 439.909 610.937 439.909ZM627.539 459.341C625.962 459.341 624.602 458.993 623.459 458.297C622.322 457.594 621.445 456.614 620.827 455.357C620.216 454.092 619.911 452.622 619.911 450.946C619.911 449.27 620.216 447.793 620.827 446.514C621.445 445.229 622.305 444.227 623.405 443.51C624.513 442.786 625.806 442.423 627.283 442.423C628.135 442.423 628.977 442.565 629.808 442.849C630.639 443.134 631.395 443.595 632.077 444.234C632.759 444.866 633.302 445.705 633.707 446.749C634.112 447.793 634.314 449.078 634.314 450.605V451.67H621.701V449.497H631.758C631.758 448.574 631.573 447.75 631.204 447.026C630.841 446.301 630.323 445.729 629.648 445.31C628.981 444.891 628.192 444.682 627.283 444.682C626.282 444.682 625.415 444.93 624.684 445.428C623.959 445.918 623.402 446.557 623.011 447.345C622.621 448.134 622.425 448.979 622.425 449.881V451.33C622.425 452.565 622.638 453.613 623.064 454.472C623.498 455.325 624.098 455.974 624.865 456.422C625.632 456.862 626.523 457.082 627.539 457.082C628.199 457.082 628.796 456.99 629.329 456.805C629.868 456.614 630.334 456.33 630.724 455.953C631.115 455.57 631.417 455.094 631.63 454.526L634.059 455.207C633.803 456.031 633.373 456.756 632.77 457.381C632.166 457.999 631.42 458.482 630.532 458.83C629.645 459.17 628.647 459.341 627.539 459.341ZM648.218 459.341C646.854 459.341 645.651 458.996 644.606 458.308C643.562 457.612 642.746 456.631 642.156 455.367C641.567 454.096 641.272 452.594 641.272 450.861C641.272 449.142 641.567 447.651 642.156 446.386C642.746 445.122 643.566 444.146 644.617 443.457C645.668 442.768 646.883 442.423 648.261 442.423C649.326 442.423 650.168 442.601 650.785 442.956C651.41 443.304 651.886 443.702 652.213 444.149C652.547 444.589 652.806 444.952 652.991 445.236H653.204V437.182H655.718V459H653.289V456.486H652.991C652.806 456.784 652.543 457.161 652.202 457.615C651.861 458.062 651.375 458.464 650.743 458.819C650.111 459.167 649.269 459.341 648.218 459.341ZM648.559 457.082C649.567 457.082 650.42 456.82 651.116 456.294C651.812 455.761 652.341 455.026 652.703 454.089C653.065 453.144 653.246 452.054 653.246 450.818C653.246 449.597 653.069 448.528 652.714 447.612C652.359 446.688 651.833 445.971 651.137 445.46C650.441 444.941 649.582 444.682 648.559 444.682C647.494 444.682 646.606 444.955 645.896 445.502C645.192 446.042 644.663 446.777 644.308 447.707C643.96 448.631 643.786 449.668 643.786 450.818C643.786 451.983 643.964 453.041 644.319 453.993C644.681 454.937 645.214 455.69 645.917 456.251C646.627 456.805 647.508 457.082 648.559 457.082Z" fill="black"/>
<path d="M835.074 442.636C834.946 441.557 834.428 440.719 833.518 440.122C832.609 439.526 831.494 439.227 830.173 439.227C829.207 439.227 828.362 439.384 827.638 439.696C826.92 440.009 826.359 440.438 825.955 440.985C825.557 441.532 825.358 442.153 825.358 442.849C825.358 443.432 825.496 443.933 825.773 444.352C826.058 444.763 826.42 445.108 826.86 445.385C827.3 445.655 827.762 445.879 828.245 446.056C828.728 446.227 829.172 446.365 829.577 446.472L831.793 447.068C832.361 447.217 832.993 447.423 833.689 447.686C834.392 447.949 835.063 448.308 835.702 448.762C836.349 449.21 836.881 449.785 837.3 450.488C837.719 451.191 837.929 452.054 837.929 453.077C837.929 454.256 837.62 455.321 837.002 456.273C836.391 457.224 835.496 457.981 834.317 458.542C833.146 459.103 831.722 459.384 830.045 459.384C828.483 459.384 827.13 459.131 825.987 458.627C824.85 458.123 823.955 457.42 823.302 456.518C822.656 455.616 822.29 454.568 822.205 453.375H824.932C825.003 454.199 825.28 454.881 825.763 455.42C826.253 455.953 826.871 456.351 827.616 456.614C828.369 456.869 829.179 456.997 830.045 456.997C831.054 456.997 831.96 456.834 832.762 456.507C833.565 456.173 834.2 455.712 834.669 455.122C835.138 454.526 835.372 453.83 835.372 453.034C835.372 452.31 835.17 451.72 834.765 451.266C834.36 450.811 833.827 450.442 833.167 450.158C832.506 449.874 831.793 449.625 831.026 449.412L828.341 448.645C826.636 448.155 825.287 447.455 824.293 446.546C823.298 445.637 822.801 444.447 822.801 442.977C822.801 441.756 823.131 440.69 823.792 439.781C824.46 438.865 825.354 438.155 826.477 437.651C827.606 437.139 828.866 436.884 830.259 436.884C831.665 436.884 832.915 437.136 834.009 437.64C835.102 438.137 835.969 438.819 836.608 439.685C837.254 440.552 837.595 441.536 837.631 442.636H835.074ZM852.948 442.636V444.767H844.468V442.636H852.948ZM846.94 438.716H849.454V454.312C849.454 455.023 849.557 455.555 849.763 455.911C849.976 456.259 850.246 456.493 850.573 456.614C850.907 456.727 851.258 456.784 851.627 456.784C851.904 456.784 852.132 456.77 852.309 456.741C852.487 456.706 852.629 456.678 852.735 456.656L853.247 458.915C853.076 458.979 852.838 459.043 852.533 459.107C852.228 459.178 851.841 459.213 851.372 459.213C850.662 459.213 849.966 459.06 849.284 458.755C848.609 458.45 848.048 457.984 847.6 457.359C847.16 456.734 846.94 455.946 846.94 454.994V438.716ZM865.446 459.384C864.409 459.384 863.468 459.188 862.623 458.798C861.777 458.4 861.106 457.828 860.609 457.082C860.112 456.33 859.863 455.42 859.863 454.355C859.863 453.418 860.048 452.658 860.417 452.075C860.787 451.486 861.28 451.024 861.898 450.69C862.516 450.357 863.198 450.108 863.944 449.945C864.696 449.774 865.453 449.639 866.213 449.54C867.207 449.412 868.013 449.316 868.631 449.252C869.256 449.181 869.711 449.064 869.995 448.901C870.286 448.737 870.432 448.453 870.432 448.048V447.963C870.432 446.912 870.144 446.095 869.569 445.513C869 444.93 868.138 444.639 866.98 444.639C865.78 444.639 864.839 444.902 864.157 445.428C863.475 445.953 862.995 446.514 862.719 447.111L860.332 446.259C860.758 445.264 861.326 444.49 862.037 443.936C862.754 443.375 863.535 442.984 864.38 442.764C865.233 442.537 866.071 442.423 866.895 442.423C867.42 442.423 868.024 442.487 868.706 442.615C869.395 442.736 870.059 442.988 870.698 443.371C871.344 443.755 871.88 444.334 872.307 445.108C872.733 445.882 872.946 446.919 872.946 448.219V459H870.432V456.784H870.304C870.133 457.139 869.849 457.519 869.451 457.924C869.054 458.329 868.525 458.673 867.864 458.957C867.204 459.241 866.397 459.384 865.446 459.384ZM865.829 457.125C866.824 457.125 867.662 456.93 868.344 456.539C869.032 456.148 869.551 455.644 869.899 455.026C870.254 454.408 870.432 453.759 870.432 453.077V450.776C870.325 450.903 870.091 451.021 869.728 451.127C869.373 451.227 868.961 451.315 868.493 451.393C868.031 451.464 867.58 451.528 867.14 451.585C866.706 451.635 866.355 451.678 866.085 451.713C865.432 451.798 864.821 451.937 864.253 452.129C863.692 452.313 863.237 452.594 862.889 452.97C862.548 453.339 862.378 453.844 862.378 454.483C862.378 455.357 862.701 456.017 863.347 456.464C864 456.905 864.828 457.125 865.829 457.125ZM881.435 459V442.636H883.864V445.108H884.034C884.332 444.298 884.872 443.641 885.653 443.137C886.435 442.633 887.315 442.381 888.296 442.381C888.48 442.381 888.711 442.384 888.988 442.391C889.265 442.398 889.475 442.409 889.617 442.423V444.98C889.531 444.959 889.336 444.927 889.031 444.884C888.732 444.835 888.416 444.81 888.082 444.81C887.287 444.81 886.577 444.977 885.952 445.31C885.334 445.637 884.844 446.092 884.482 446.674C884.126 447.249 883.949 447.906 883.949 448.645V459H881.435ZM904.639 442.636V444.767H896.159V442.636H904.639ZM898.63 438.716H901.144V454.312C901.144 455.023 901.247 455.555 901.453 455.911C901.666 456.259 901.936 456.493 902.263 456.614C902.597 456.727 902.948 456.784 903.318 456.784C903.595 456.784 903.822 456.77 904 456.741C904.177 456.706 904.319 456.678 904.426 456.656L904.937 458.915C904.767 458.979 904.529 459.043 904.223 459.107C903.918 459.178 903.531 459.213 903.062 459.213C902.352 459.213 901.656 459.06 900.974 458.755C900.299 458.45 899.738 457.984 899.291 457.359C898.85 456.734 898.63 455.946 898.63 454.994V438.716ZM930.837 459.341C929.474 459.341 928.27 458.996 927.226 458.308C926.182 457.612 925.365 456.631 924.775 455.367C924.186 454.096 923.891 452.594 923.891 450.861C923.891 449.142 924.186 447.651 924.775 446.386C925.365 445.122 926.185 444.146 927.236 443.457C928.287 442.768 929.502 442.423 930.88 442.423C931.945 442.423 932.787 442.601 933.405 442.956C934.03 443.304 934.505 443.702 934.832 444.149C935.166 444.589 935.425 444.952 935.61 445.236H935.823V437.182H938.337V459H935.908V456.486H935.61C935.425 456.784 935.162 457.161 934.822 457.615C934.481 458.062 933.994 458.464 933.362 458.819C932.73 459.167 931.888 459.341 930.837 459.341ZM931.178 457.082C932.187 457.082 933.039 456.82 933.735 456.294C934.431 455.761 934.96 455.026 935.322 454.089C935.684 453.144 935.866 452.054 935.866 450.818C935.866 449.597 935.688 448.528 935.333 447.612C934.978 446.688 934.452 445.971 933.756 445.46C933.06 444.941 932.201 444.682 931.178 444.682C930.113 444.682 929.225 444.955 928.515 445.502C927.812 446.042 927.282 446.777 926.927 447.707C926.579 448.631 926.405 449.668 926.405 450.818C926.405 451.983 926.583 453.041 926.938 453.993C927.3 454.937 927.833 455.69 928.536 456.251C929.246 456.805 930.127 457.082 931.178 457.082ZM947.191 459V442.636H949.62V445.108H949.79C950.089 444.298 950.628 443.641 951.41 443.137C952.191 442.633 953.072 442.381 954.052 442.381C954.236 442.381 954.467 442.384 954.744 442.391C955.021 442.398 955.231 442.409 955.373 442.423V444.98C955.288 444.959 955.092 444.927 954.787 444.884C954.489 444.835 954.173 444.81 953.839 444.81C953.043 444.81 952.333 444.977 951.708 445.31C951.09 445.637 950.6 446.092 950.238 446.674C949.883 447.249 949.705 447.906 949.705 448.645V459H947.191ZM962.253 459V442.636H964.767V459H962.253ZM963.531 439.909C963.041 439.909 962.619 439.742 962.264 439.408C961.916 439.075 961.742 438.673 961.742 438.205C961.742 437.736 961.916 437.335 962.264 437.001C962.619 436.667 963.041 436.5 963.531 436.5C964.022 436.5 964.441 436.667 964.789 437.001C965.144 437.335 965.321 437.736 965.321 438.205C965.321 438.673 965.144 439.075 964.789 439.408C964.441 439.742 964.022 439.909 963.531 439.909ZM986.653 442.636L980.602 459H978.045L971.994 442.636H974.721L979.238 455.676H979.409L983.926 442.636H986.653ZM993.871 459V442.636H996.386V459H993.871ZM995.15 439.909C994.66 439.909 994.237 439.742 993.882 439.408C993.534 439.075 993.36 438.673 993.36 438.205C993.36 437.736 993.534 437.335 993.882 437.001C994.237 436.667 994.66 436.5 995.15 436.5C995.64 436.5 996.059 436.667 996.407 437.001C996.762 437.335 996.94 437.736 996.94 438.205C996.94 438.673 996.762 439.075 996.407 439.408C996.059 439.742 995.64 439.909 995.15 439.909ZM1007.4 449.156V459H1004.89V442.636H1007.32V445.193H1007.53C1007.92 444.362 1008.5 443.695 1009.28 443.19C1010.06 442.679 1011.07 442.423 1012.31 442.423C1013.41 442.423 1014.38 442.651 1015.21 443.105C1016.04 443.553 1016.69 444.234 1017.15 445.151C1017.61 446.06 1017.85 447.21 1017.85 448.602V459H1015.33V448.773C1015.33 447.487 1015 446.486 1014.33 445.768C1013.66 445.044 1012.75 444.682 1011.58 444.682C1010.78 444.682 1010.06 444.856 1009.43 445.204C1008.8 445.552 1008.31 446.06 1007.95 446.727C1007.59 447.395 1007.4 448.205 1007.4 449.156ZM1032.94 465.477C1031.73 465.477 1030.69 465.321 1029.81 465.009C1028.94 464.703 1028.21 464.298 1027.63 463.794C1027.05 463.297 1026.6 462.764 1026.25 462.196L1028.26 460.79C1028.48 461.088 1028.77 461.429 1029.12 461.812C1029.47 462.203 1029.94 462.54 1030.55 462.825C1031.16 463.116 1031.96 463.261 1032.94 463.261C1034.27 463.261 1035.36 462.942 1036.22 462.303C1037.07 461.663 1037.5 460.662 1037.5 459.298V455.974H1037.29C1037.11 456.273 1036.84 456.642 1036.5 457.082C1036.17 457.516 1035.69 457.903 1035.05 458.244C1034.43 458.577 1033.58 458.744 1032.52 458.744C1031.2 458.744 1030.01 458.432 1028.96 457.807C1027.92 457.182 1027.09 456.273 1026.48 455.08C1025.87 453.886 1025.57 452.437 1025.57 450.733C1025.57 449.057 1025.87 447.597 1026.46 446.354C1027.05 445.104 1027.87 444.138 1028.92 443.457C1029.97 442.768 1031.18 442.423 1032.56 442.423C1033.63 442.423 1034.47 442.601 1035.1 442.956C1035.73 443.304 1036.21 443.702 1036.55 444.149C1036.89 444.589 1037.15 444.952 1037.33 445.236H1037.59V442.636H1040.02V459.469C1040.02 460.875 1039.7 462.018 1039.06 462.899C1038.43 463.787 1037.58 464.437 1036.5 464.849C1035.44 465.268 1034.25 465.477 1032.94 465.477ZM1032.86 456.486C1033.87 456.486 1034.72 456.255 1035.42 455.793C1036.11 455.332 1036.64 454.668 1037 453.801C1037.37 452.935 1037.55 451.898 1037.55 450.69C1037.55 449.511 1037.37 448.471 1037.01 447.569C1036.66 446.667 1036.13 445.96 1035.44 445.449C1034.74 444.937 1033.88 444.682 1032.86 444.682C1031.79 444.682 1030.91 444.952 1030.2 445.491C1029.49 446.031 1028.96 446.756 1028.61 447.665C1028.26 448.574 1028.09 449.582 1028.09 450.69C1028.09 451.827 1028.26 452.832 1028.62 453.705C1028.98 454.572 1029.51 455.254 1030.22 455.751C1030.93 456.241 1031.81 456.486 1032.86 456.486Z" fill="black"/>
<path d="M313.057 229C312.822 228.283 312.513 227.64 312.13 227.072C311.754 226.496 311.303 226.006 310.777 225.602C310.259 225.197 309.669 224.888 309.009 224.675C308.348 224.462 307.624 224.355 306.835 224.355C305.543 224.355 304.367 224.689 303.309 225.357C302.251 226.024 301.409 227.008 300.784 228.308C300.159 229.607 299.847 231.202 299.847 233.091C299.847 234.98 300.163 236.575 300.795 237.874C301.427 239.174 302.283 240.158 303.362 240.825C304.442 241.493 305.656 241.827 307.006 241.827C308.256 241.827 309.357 241.56 310.308 241.028C311.267 240.488 312.013 239.728 312.545 238.748C313.085 237.761 313.355 236.599 313.355 235.264L314.165 235.435H307.602V233.091H315.912V235.435C315.912 237.232 315.528 238.794 314.761 240.122C314.001 241.45 312.95 242.48 311.608 243.212C310.273 243.936 308.739 244.298 307.006 244.298C305.074 244.298 303.376 243.844 301.913 242.935C300.457 242.026 299.321 240.733 298.504 239.057C297.695 237.381 297.29 235.392 297.29 233.091C297.29 231.365 297.521 229.813 297.982 228.435C298.451 227.05 299.112 225.871 299.964 224.898C300.816 223.925 301.825 223.18 302.989 222.661C304.154 222.143 305.436 221.884 306.835 221.884C307.986 221.884 309.058 222.058 310.053 222.406C311.054 222.746 311.945 223.233 312.727 223.865C313.515 224.49 314.172 225.239 314.697 226.113C315.223 226.979 315.585 227.942 315.784 229H313.057ZM330.857 244.341C329.28 244.341 327.92 243.993 326.777 243.297C325.64 242.594 324.763 241.614 324.145 240.357C323.534 239.092 323.229 237.622 323.229 235.946C323.229 234.27 323.534 232.793 324.145 231.514C324.763 230.229 325.622 229.227 326.723 228.51C327.831 227.786 329.124 227.423 330.601 227.423C331.453 227.423 332.295 227.565 333.126 227.849C333.957 228.134 334.713 228.595 335.395 229.234C336.077 229.866 336.62 230.705 337.025 231.749C337.43 232.793 337.632 234.078 337.632 235.605V236.67H325.019V234.497H335.076C335.076 233.574 334.891 232.75 334.522 232.026C334.159 231.301 333.641 230.729 332.966 230.31C332.299 229.891 331.51 229.682 330.601 229.682C329.6 229.682 328.733 229.93 328.002 230.428C327.277 230.918 326.72 231.557 326.329 232.345C325.939 233.134 325.743 233.979 325.743 234.881V236.33C325.743 237.565 325.956 238.613 326.382 239.472C326.816 240.325 327.416 240.974 328.183 241.422C328.95 241.862 329.841 242.082 330.857 242.082C331.517 242.082 332.114 241.99 332.647 241.805C333.186 241.614 333.652 241.33 334.042 240.953C334.433 240.57 334.735 240.094 334.948 239.526L337.377 240.207C337.121 241.031 336.691 241.756 336.088 242.381C335.484 242.999 334.738 243.482 333.85 243.83C332.963 244.17 331.965 244.341 330.857 244.341ZM352.473 227.636V229.767H343.993V227.636H352.473ZM346.465 223.716H348.979V239.312C348.979 240.023 349.082 240.555 349.288 240.911C349.501 241.259 349.771 241.493 350.098 241.614C350.432 241.727 350.783 241.784 351.152 241.784C351.429 241.784 351.657 241.77 351.834 241.741C352.012 241.706 352.154 241.678 352.26 241.656L352.772 243.915C352.601 243.979 352.363 244.043 352.058 244.107C351.753 244.178 351.366 244.213 350.897 244.213C350.187 244.213 349.491 244.06 348.809 243.755C348.134 243.45 347.573 242.984 347.125 242.359C346.685 241.734 346.465 240.946 346.465 239.994V223.716ZM379.141 244.341C377.663 244.341 376.367 243.989 375.252 243.286C374.144 242.583 373.278 241.599 372.653 240.335C372.035 239.071 371.726 237.594 371.726 235.903C371.726 234.199 372.035 232.711 372.653 231.44C373.278 230.168 374.144 229.181 375.252 228.478C376.367 227.775 377.663 227.423 379.141 227.423C380.618 227.423 381.911 227.775 383.019 228.478C384.134 229.181 385 230.168 385.618 231.44C386.243 232.711 386.555 234.199 386.555 235.903C386.555 237.594 386.243 239.071 385.618 240.335C385 241.599 384.134 242.583 383.019 243.286C381.911 243.989 380.618 244.341 379.141 244.341ZM379.141 242.082C380.263 242.082 381.186 241.795 381.911 241.219C382.635 240.644 383.171 239.888 383.519 238.95C383.867 238.013 384.041 236.997 384.041 235.903C384.041 234.81 383.867 233.79 383.519 232.846C383.171 231.901 382.635 231.138 381.911 230.555C381.186 229.973 380.263 229.682 379.141 229.682C378.019 229.682 377.095 229.973 376.371 230.555C375.646 231.138 375.11 231.901 374.762 232.846C374.414 233.79 374.24 234.81 374.24 235.903C374.24 236.997 374.414 238.013 374.762 238.95C375.11 239.888 375.646 240.644 376.371 241.219C377.095 241.795 378.019 242.082 379.141 242.082ZM396.808 234.156V244H394.293V227.636H396.722V230.193H396.935C397.319 229.362 397.901 228.695 398.683 228.19C399.464 227.679 400.472 227.423 401.708 227.423C402.816 227.423 403.786 227.651 404.616 228.105C405.447 228.553 406.094 229.234 406.555 230.151C407.017 231.06 407.248 232.21 407.248 233.602V244H404.734V233.773C404.734 232.487 404.4 231.486 403.732 230.768C403.065 230.044 402.148 229.682 400.984 229.682C400.181 229.682 399.464 229.856 398.832 230.204C398.207 230.552 397.713 231.06 397.351 231.727C396.989 232.395 396.808 233.205 396.808 234.156ZM422.603 244.341C421.026 244.341 419.666 243.993 418.523 243.297C417.386 242.594 416.509 241.614 415.891 240.357C415.281 239.092 414.975 237.622 414.975 235.946C414.975 234.27 415.281 232.793 415.891 231.514C416.509 230.229 417.369 229.227 418.469 228.51C419.577 227.786 420.87 227.423 422.347 227.423C423.2 227.423 424.041 227.565 424.872 227.849C425.703 228.134 426.459 228.595 427.141 229.234C427.823 229.866 428.366 230.705 428.771 231.749C429.176 232.793 429.379 234.078 429.379 235.605V236.67H416.765V234.497H426.822C426.822 233.574 426.637 232.75 426.268 232.026C425.906 231.301 425.387 230.729 424.712 230.31C424.045 229.891 423.256 229.682 422.347 229.682C421.346 229.682 420.479 229.93 419.748 230.428C419.023 230.918 418.466 231.557 418.075 232.345C417.685 233.134 417.489 233.979 417.489 234.881V236.33C417.489 237.565 417.702 238.613 418.129 239.472C418.562 240.325 419.162 240.974 419.929 241.422C420.696 241.862 421.587 242.082 422.603 242.082C423.263 242.082 423.86 241.99 424.393 241.805C424.932 241.614 425.398 241.33 425.788 240.953C426.179 240.57 426.481 240.094 426.694 239.526L429.123 240.207C428.867 241.031 428.437 241.756 427.834 242.381C427.23 242.999 426.484 243.482 425.597 243.83C424.709 244.17 423.711 244.341 422.603 244.341ZM449.441 244V227.636H451.955V244H449.441ZM450.719 224.909C450.229 224.909 449.806 224.742 449.451 224.408C449.103 224.075 448.929 223.673 448.929 223.205C448.929 222.736 449.103 222.335 449.451 222.001C449.806 221.667 450.229 221.5 450.719 221.5C451.209 221.5 451.628 221.667 451.976 222.001C452.331 222.335 452.509 222.736 452.509 223.205C452.509 223.673 452.331 224.075 451.976 224.408C451.628 224.742 451.209 224.909 450.719 224.909ZM462.974 234.156V244H460.46V227.636H462.889V230.193H463.102C463.485 229.362 464.068 228.695 464.849 228.19C465.63 227.679 466.639 227.423 467.875 227.423C468.982 227.423 469.952 227.651 470.783 228.105C471.614 228.553 472.26 229.234 472.722 230.151C473.183 231.06 473.414 232.21 473.414 233.602V244H470.9V233.773C470.9 232.487 470.566 231.486 469.899 230.768C469.231 230.044 468.315 229.682 467.15 229.682C466.348 229.682 465.63 229.856 464.998 230.204C464.373 230.552 463.879 231.06 463.517 231.727C463.155 232.395 462.974 233.205 462.974 234.156ZM496.76 222.182V244H494.246V222.182H496.76ZM512.126 244.341C510.549 244.341 509.189 243.993 508.046 243.297C506.909 242.594 506.032 241.614 505.414 240.357C504.804 239.092 504.498 237.622 504.498 235.946C504.498 234.27 504.804 232.793 505.414 231.514C506.032 230.229 506.892 229.227 507.992 228.51C509.1 227.786 510.393 227.423 511.87 227.423C512.723 227.423 513.564 227.565 514.395 227.849C515.226 228.134 515.983 228.595 516.664 229.234C517.346 229.866 517.889 230.705 518.294 231.749C518.699 232.793 518.902 234.078 518.902 235.605V236.67H506.288V234.497H516.345C516.345 233.574 516.16 232.75 515.791 232.026C515.429 231.301 514.91 230.729 514.235 230.31C513.568 229.891 512.779 229.682 511.87 229.682C510.869 229.682 510.002 229.93 509.271 230.428C508.546 230.918 507.989 231.557 507.598 232.345C507.208 233.134 507.012 233.979 507.012 234.881V236.33C507.012 237.565 507.225 238.613 507.652 239.472C508.085 240.325 508.685 240.974 509.452 241.422C510.219 241.862 511.11 242.082 512.126 242.082C512.787 242.082 513.383 241.99 513.916 241.805C514.456 241.614 514.921 241.33 515.311 240.953C515.702 240.57 516.004 240.094 516.217 239.526L518.646 240.207C518.39 241.031 517.961 241.756 517.357 242.381C516.753 242.999 516.007 243.482 515.12 243.83C514.232 244.17 513.234 244.341 512.126 244.341ZM538.217 231.301L535.959 231.94C535.816 231.564 535.607 231.198 535.33 230.843C535.06 230.481 534.691 230.183 534.222 229.948C533.753 229.714 533.153 229.597 532.422 229.597C531.42 229.597 530.586 229.827 529.918 230.289C529.258 230.744 528.927 231.322 528.927 232.026C528.927 232.651 529.155 233.144 529.609 233.506C530.064 233.869 530.774 234.17 531.74 234.412L534.169 235.009C535.632 235.364 536.722 235.907 537.439 236.638C538.157 237.363 538.515 238.297 538.515 239.44C538.515 240.378 538.245 241.216 537.706 241.955C537.173 242.693 536.427 243.276 535.468 243.702C534.51 244.128 533.395 244.341 532.123 244.341C530.454 244.341 529.073 243.979 527.979 243.254C526.885 242.53 526.193 241.472 525.902 240.08L528.288 239.483C528.515 240.364 528.945 241.024 529.577 241.464C530.216 241.905 531.051 242.125 532.081 242.125C533.253 242.125 534.183 241.876 534.872 241.379C535.568 240.875 535.916 240.271 535.916 239.568C535.916 239 535.717 238.524 535.319 238.141C534.922 237.75 534.311 237.459 533.487 237.267L530.76 236.628C529.261 236.273 528.16 235.722 527.457 234.977C526.761 234.224 526.413 233.283 526.413 232.153C526.413 231.23 526.672 230.413 527.191 229.703C527.716 228.993 528.43 228.435 529.332 228.031C530.241 227.626 531.271 227.423 532.422 227.423C534.041 227.423 535.312 227.778 536.236 228.489C537.166 229.199 537.826 230.136 538.217 231.301ZM557.791 231.301L555.532 231.94C555.39 231.564 555.181 231.198 554.904 230.843C554.634 230.481 554.265 230.183 553.796 229.948C553.327 229.714 552.727 229.597 551.995 229.597C550.994 229.597 550.159 229.827 549.492 230.289C548.831 230.744 548.501 231.322 548.501 232.026C548.501 232.651 548.728 233.144 549.183 233.506C549.637 233.869 550.348 234.17 551.314 234.412L553.743 235.009C555.206 235.364 556.296 235.907 557.013 236.638C557.731 237.363 558.089 238.297 558.089 239.44C558.089 240.378 557.819 241.216 557.28 241.955C556.747 242.693 556.001 243.276 555.042 243.702C554.083 244.128 552.968 244.341 551.697 244.341C550.028 244.341 548.647 243.979 547.553 243.254C546.459 242.53 545.767 241.472 545.476 240.08L547.862 239.483C548.089 240.364 548.519 241.024 549.151 241.464C549.79 241.905 550.625 242.125 551.655 242.125C552.826 242.125 553.757 241.876 554.446 241.379C555.142 240.875 555.49 240.271 555.49 239.568C555.49 239 555.291 238.524 554.893 238.141C554.495 237.75 553.885 237.459 553.061 237.267L550.333 236.628C548.835 236.273 547.734 235.722 547.031 234.977C546.335 234.224 545.987 233.283 545.987 232.153C545.987 231.23 546.246 230.413 546.765 229.703C547.29 228.993 548.004 228.435 548.906 228.031C549.815 227.626 550.845 227.423 551.995 227.423C553.615 227.423 554.886 227.778 555.809 228.489C556.74 229.199 557.4 230.136 557.791 231.301ZM585.228 227.636V229.767H576.748V227.636H585.228ZM579.219 223.716H581.733V239.312C581.733 240.023 581.836 240.555 582.042 240.911C582.255 241.259 582.525 241.493 582.852 241.614C583.186 241.727 583.537 241.784 583.907 241.784C584.184 241.784 584.411 241.77 584.589 241.741C584.766 241.706 584.908 241.678 585.015 241.656L585.526 243.915C585.356 243.979 585.118 244.043 584.812 244.107C584.507 244.178 584.12 244.213 583.651 244.213C582.941 244.213 582.245 244.06 581.563 243.755C580.888 243.45 580.327 242.984 579.88 242.359C579.439 241.734 579.219 240.946 579.219 239.994V223.716ZM595.775 234.156V244H593.261V222.182H595.775V230.193H595.989C596.372 229.348 596.947 228.677 597.714 228.18C598.489 227.675 599.518 227.423 600.804 227.423C601.919 227.423 602.896 227.647 603.734 228.094C604.572 228.535 605.222 229.213 605.683 230.129C606.152 231.038 606.386 232.196 606.386 233.602V244H603.872V233.773C603.872 232.473 603.535 231.468 602.86 230.758C602.192 230.04 601.266 229.682 600.079 229.682C599.256 229.682 598.517 229.856 597.864 230.204C597.217 230.552 596.706 231.06 596.329 231.727C595.96 232.395 595.775 233.205 595.775 234.156ZM619.701 244.384C618.664 244.384 617.723 244.188 616.878 243.798C616.033 243.4 615.362 242.828 614.865 242.082C614.367 241.33 614.119 240.42 614.119 239.355C614.119 238.418 614.304 237.658 614.673 237.075C615.042 236.486 615.536 236.024 616.154 235.69C616.772 235.357 617.453 235.108 618.199 234.945C618.952 234.774 619.708 234.639 620.468 234.54C621.463 234.412 622.269 234.316 622.887 234.252C623.512 234.181 623.966 234.064 624.25 233.901C624.541 233.737 624.687 233.453 624.687 233.048V232.963C624.687 231.912 624.399 231.095 623.824 230.513C623.256 229.93 622.393 229.639 621.235 229.639C620.035 229.639 619.094 229.902 618.412 230.428C617.73 230.953 617.251 231.514 616.974 232.111L614.588 231.259C615.014 230.264 615.582 229.49 616.292 228.936C617.009 228.375 617.791 227.984 618.636 227.764C619.488 227.537 620.326 227.423 621.15 227.423C621.676 227.423 622.279 227.487 622.961 227.615C623.65 227.736 624.314 227.988 624.953 228.371C625.6 228.755 626.136 229.334 626.562 230.108C626.988 230.882 627.201 231.919 627.201 233.219V244H624.687V241.784H624.559C624.389 242.139 624.105 242.519 623.707 242.924C623.309 243.329 622.78 243.673 622.12 243.957C621.459 244.241 620.653 244.384 619.701 244.384ZM620.085 242.125C621.079 242.125 621.917 241.93 622.599 241.539C623.288 241.148 623.806 240.644 624.154 240.026C624.509 239.408 624.687 238.759 624.687 238.077V235.776C624.581 235.903 624.346 236.021 623.984 236.127C623.629 236.227 623.217 236.315 622.748 236.393C622.286 236.464 621.835 236.528 621.395 236.585C620.962 236.635 620.61 236.678 620.34 236.713C619.687 236.798 619.076 236.937 618.508 237.129C617.947 237.313 617.492 237.594 617.144 237.97C616.804 238.339 616.633 238.844 616.633 239.483C616.633 240.357 616.956 241.017 617.603 241.464C618.256 241.905 619.083 242.125 620.085 242.125ZM638.204 234.156V244H635.69V227.636H638.119V230.193H638.332C638.716 229.362 639.298 228.695 640.079 228.19C640.861 227.679 641.869 227.423 643.105 227.423C644.213 227.423 645.182 227.651 646.013 228.105C646.844 228.553 647.491 229.234 647.952 230.151C648.414 231.06 648.645 232.21 648.645 233.602V244H646.131V233.773C646.131 232.487 645.797 231.486 645.129 230.768C644.462 230.044 643.545 229.682 642.381 229.682C641.578 229.682 640.861 229.856 640.229 230.204C639.604 230.552 639.11 231.06 638.748 231.727C638.386 232.395 638.204 233.205 638.204 234.156ZM674.292 244.384C673.255 244.384 672.314 244.188 671.469 243.798C670.624 243.4 669.952 242.828 669.455 242.082C668.958 241.33 668.709 240.42 668.709 239.355C668.709 238.418 668.894 237.658 669.263 237.075C669.633 236.486 670.126 236.024 670.744 235.69C671.362 235.357 672.044 235.108 672.79 234.945C673.543 234.774 674.299 234.639 675.059 234.54C676.053 234.412 676.859 234.316 677.477 234.252C678.102 234.181 678.557 234.064 678.841 233.901C679.132 233.737 679.278 233.453 679.278 233.048V232.963C679.278 231.912 678.99 231.095 678.415 230.513C677.847 229.93 676.984 229.639 675.826 229.639C674.626 229.639 673.685 229.902 673.003 230.428C672.321 230.953 671.842 231.514 671.565 232.111L669.178 231.259C669.604 230.264 670.173 229.49 670.883 228.936C671.6 228.375 672.381 227.984 673.227 227.764C674.079 227.537 674.917 227.423 675.741 227.423C676.266 227.423 676.87 227.487 677.552 227.615C678.241 227.736 678.905 227.988 679.544 228.371C680.19 228.755 680.727 229.334 681.153 230.108C681.579 230.882 681.792 231.919 681.792 233.219V244H679.278V241.784H679.15C678.979 242.139 678.695 242.519 678.298 242.924C677.9 243.329 677.371 243.673 676.71 243.957C676.05 244.241 675.244 244.384 674.292 244.384ZM674.675 242.125C675.67 242.125 676.508 241.93 677.19 241.539C677.879 241.148 678.397 240.644 678.745 240.026C679.1 239.408 679.278 238.759 679.278 238.077V235.776C679.171 235.903 678.937 236.021 678.575 236.127C678.219 236.227 677.807 236.315 677.339 236.393C676.877 236.464 676.426 236.528 675.986 236.585C675.553 236.635 675.201 236.678 674.931 236.713C674.278 236.798 673.667 236.937 673.099 237.129C672.538 237.313 672.083 237.594 671.735 237.97C671.394 238.339 671.224 238.844 671.224 239.483C671.224 240.357 671.547 241.017 672.193 241.464C672.847 241.905 673.674 242.125 674.675 242.125ZM706.326 244L701.34 227.636H703.982L707.519 240.165H707.689L711.184 227.636H713.868L717.32 240.122H717.49L721.027 227.636H723.669L718.684 244H716.212L712.633 231.429H712.377L708.797 244H706.326ZM737.197 244.341C735.621 244.341 734.261 243.993 733.117 243.297C731.981 242.594 731.104 241.614 730.486 240.357C729.875 239.092 729.57 237.622 729.57 235.946C729.57 234.27 729.875 232.793 730.486 231.514C731.104 230.229 731.963 229.227 733.064 228.51C734.172 227.786 735.465 227.423 736.942 227.423C737.794 227.423 738.636 227.565 739.467 227.849C740.298 228.134 741.054 228.595 741.736 229.234C742.418 229.866 742.961 230.705 743.366 231.749C743.771 232.793 743.973 234.078 743.973 235.605V236.67H731.359V234.497H741.416C741.416 233.574 741.232 232.75 740.862 232.026C740.5 231.301 739.982 230.729 739.307 230.31C738.639 229.891 737.851 229.682 736.942 229.682C735.94 229.682 735.074 229.93 734.342 230.428C733.618 230.918 733.06 231.557 732.67 232.345C732.279 233.134 732.084 233.979 732.084 234.881V236.33C732.084 237.565 732.297 238.613 732.723 239.472C733.156 240.325 733.756 240.974 734.523 241.422C735.291 241.862 736.182 242.082 737.197 242.082C737.858 242.082 738.455 241.99 738.987 241.805C739.527 241.614 739.992 241.33 740.383 240.953C740.773 240.57 741.075 240.094 741.288 239.526L743.717 240.207C743.462 241.031 743.032 241.756 742.428 242.381C741.825 242.999 741.079 243.482 740.191 243.83C739.303 244.17 738.305 244.341 737.197 244.341ZM758.558 244.341C756.982 244.341 755.622 243.993 754.478 243.297C753.342 242.594 752.465 241.614 751.847 240.357C751.236 239.092 750.931 237.622 750.931 235.946C750.931 234.27 751.236 232.793 751.847 231.514C752.465 230.229 753.324 229.227 754.425 228.51C755.533 227.786 756.825 227.423 758.303 227.423C759.155 227.423 759.997 227.565 760.828 227.849C761.659 228.134 762.415 228.595 763.097 229.234C763.779 229.866 764.322 230.705 764.727 231.749C765.132 232.793 765.334 234.078 765.334 235.605V236.67H752.72V234.497H762.777C762.777 233.574 762.593 232.75 762.223 232.026C761.861 231.301 761.343 230.729 760.668 230.31C760 229.891 759.212 229.682 758.303 229.682C757.301 229.682 756.435 229.93 755.703 230.428C754.979 230.918 754.421 231.557 754.031 232.345C753.64 233.134 753.445 233.979 753.445 234.881V236.33C753.445 237.565 753.658 238.613 754.084 239.472C754.517 240.325 755.117 240.974 755.884 241.422C756.651 241.862 757.543 242.082 758.558 242.082C759.219 242.082 759.816 241.99 760.348 241.805C760.888 241.614 761.353 241.33 761.744 240.953C762.134 240.57 762.436 240.094 762.649 239.526L765.078 240.207C764.823 241.031 764.393 241.756 763.789 242.381C763.186 242.999 762.44 243.482 761.552 243.83C760.664 244.17 759.666 244.341 758.558 244.341ZM775.402 238.034L775.36 234.923H775.871L783.03 227.636H786.141L778.513 235.349H778.3L775.402 238.034ZM773.059 244V222.182H775.573V244H773.059ZM783.456 244L777.064 235.903L778.854 234.156L786.652 244H783.456ZM796.601 222.182L796.388 237.864H793.916L793.703 222.182H796.601ZM795.152 244.17C794.626 244.17 794.175 243.982 793.799 243.606C793.423 243.229 793.234 242.778 793.234 242.253C793.234 241.727 793.423 241.276 793.799 240.9C794.175 240.523 794.626 240.335 795.152 240.335C795.677 240.335 796.128 240.523 796.505 240.9C796.881 241.276 797.07 241.727 797.07 242.253C797.07 242.601 796.981 242.92 796.803 243.212C796.633 243.503 796.402 243.737 796.111 243.915C795.827 244.085 795.507 244.17 795.152 244.17Z" fill="black" fill-opacity="0.81"/>
<defs>
<linearGradient id="paint0_linear_186_519" x1="547" y1="0" x2="547" y2="569" gradientUnits="userSpaceOnUse">
<stop offset="0.0110813" stop-color="#F1C5E5" stop-opacity="0"/>
<stop offset="0.172684" stop-color="#F1C5E5"/>
<stop offset="0.862917" stop-color="#F1C5E5"/>
<stop offset="1" stop-color="#F1C5E5" stop-opacity="0"/>
</linearGradient>
</defs>
</svg>
