<svg width="843" height="69" viewBox="0 0 843 69" fill="none" xmlns="http://www.w3.org/2000/svg">
<path d="M43.5152 0.838257H5.36509C3.1412 0.838257 1.33838 2.64108 1.33838 4.86496V63.871C1.33838 66.0948 3.1412 67.8977 5.36509 67.8977H43.5152C45.7391 67.8977 47.5419 66.0948 47.5419 63.871V4.86496C47.5419 2.64108 45.7391 0.838257 43.5152 0.838257Z" fill="#88B0EA"/>
<path d="M5.56348 7.8811H43.3162V59.5959H5.56348V7.8811Z" fill="white"/>
<path d="M26.2502 63.7506C26.1762 66.1436 22.703 66.1432 22.6294 63.7506C22.7034 61.3577 26.1766 61.3593 26.2502 63.7506Z" fill="white"/>
<path d="M30.2214 42.7568L29.941 38.5296C29.853 37.0125 29.3336 35.5521 28.4439 34.3201C26.0669 30.7978 20.2971 30.7957 17.919 34.3201C17.0295 35.5522 16.5102 37.0125 16.4219 38.5296L16.1415 42.7568C16.1218 43.0533 16.1632 43.3506 16.2632 43.6304C16.3631 43.9102 16.5194 44.1665 16.7225 44.3834C16.9255 44.6004 17.1709 44.7733 17.4434 44.8915C17.716 45.0098 18.01 45.0708 18.3071 45.0708C20.738 45.0685 25.6266 45.0727 28.0558 45.0708C28.353 45.0708 28.6469 45.0098 28.9195 44.8916C29.1921 44.7734 29.4375 44.6004 29.6405 44.3835C29.8435 44.1666 29.9999 43.9103 30.0998 43.6305C30.1997 43.3506 30.2411 43.0533 30.2214 42.7568Z" fill="#FF00C7"/>
<path d="M28.7664 22.1064C28.7664 22.8398 28.622 23.566 28.3413 24.2436C28.0607 24.9212 27.6493 25.5368 27.1307 26.0554C26.6121 26.574 25.9964 26.9854 25.3189 27.2661C24.6413 27.5467 23.9151 27.6912 23.1816 27.6912C15.7888 27.4357 15.7907 16.7762 23.1816 16.5216C23.9151 16.5216 24.6413 16.666 25.3189 16.9467C25.9965 17.2273 26.6122 17.6387 27.1308 18.1573C27.6494 18.6759 28.0607 19.2916 28.3414 19.9692C28.622 20.6467 28.7665 21.373 28.7664 22.1064Z" fill="#FF00C7"/>
<path d="M36.7931 44.4088C36.7931 45.3902 36.5999 46.362 36.2243 47.2687C35.8488 48.1754 35.2983 48.9993 34.6044 49.6933C33.9104 50.3872 33.0866 50.9377 32.1799 51.3133C31.2732 51.6889 30.3014 51.8822 29.32 51.8822C19.4272 51.5402 19.4298 37.2758 29.32 36.9357C31.302 36.9357 33.2028 37.723 34.6043 39.1245C36.0058 40.526 36.7931 42.4268 36.7931 44.4088Z" fill="white"/>
<path d="M31.4917 43.5706H30.1582V42.2372C30.1582 42.0149 30.0699 41.8016 29.9127 41.6444C29.7555 41.4872 29.5423 41.3989 29.32 41.3989C29.0977 41.3989 28.8845 41.4872 28.7273 41.6444C28.5701 41.8016 28.4817 42.0149 28.4817 42.2372V43.5706H27.1483C26.926 43.5706 26.7128 43.6589 26.5556 43.8161C26.3984 43.9733 26.3101 44.1865 26.3101 44.4088C26.3101 44.6312 26.3984 44.8444 26.5556 45.0016C26.7128 45.1588 26.926 45.2471 27.1483 45.2471H28.4817V46.5807C28.4817 46.803 28.5701 47.0163 28.7273 47.1735C28.8845 47.3307 29.0977 47.419 29.32 47.419C29.5423 47.419 29.7555 47.3307 29.9127 47.1735C30.0699 47.0163 30.1582 46.803 30.1582 46.5807V45.2471H31.4917C32.5935 45.2284 32.5933 43.5886 31.4917 43.5706Z" fill="#83DB7D"/>
<path d="M25.2785 4.37983C25.2597 5.4817 23.6207 5.48149 23.6021 4.37983C23.6207 3.27775 25.2599 3.27796 25.2785 4.37983Z" fill="white"/>
<path d="M43.515 68.7359H5.36495C4.07513 68.7345 2.83855 68.2214 1.9265 67.3094C1.01446 66.3973 0.501442 65.1608 0.5 63.8709V4.86495C0.501442 3.57513 1.01446 2.33855 1.9265 1.4265C2.83855 0.514461 4.07513 0.00144214 5.36495 0H43.515C44.8049 0.00144214 46.0415 0.514461 46.9535 1.4265C47.8655 2.33855 48.3786 3.57513 48.38 4.86495V63.8709C48.3786 65.1608 47.8655 66.3973 46.9535 67.3094C46.0415 68.2214 44.8049 68.7345 43.515 68.7359ZM5.36495 1.67649C4.51961 1.67743 3.70916 2.01366 3.11141 2.61141C2.51366 3.20916 2.17743 4.01961 2.17649 4.86495V63.8709C2.17743 64.7163 2.51366 65.5267 3.11141 66.1245C3.70916 66.7222 4.51961 67.0585 5.36495 67.0594H43.515C44.3604 67.0585 45.1708 66.7222 45.7686 66.1245C46.3663 65.5267 46.7026 64.7163 46.7035 63.8709V4.86495C46.7026 4.01961 46.3663 3.20916 45.7686 2.61141C45.1708 2.01366 44.3604 1.67743 43.515 1.67649H5.36495Z" fill="#383A49"/>
<path d="M43.3166 60.4344H5.56383C5.34151 60.4344 5.1283 60.3461 4.9711 60.1889C4.8139 60.0317 4.72559 59.8185 4.72559 59.5962V7.88121C4.72559 7.6589 4.8139 7.44568 4.9711 7.28848C5.1283 7.13128 5.34151 7.04297 5.56383 7.04297H43.3166C43.5389 7.04297 43.7521 7.13128 43.9093 7.28848C44.0665 7.44568 44.1548 7.6589 44.1548 7.88121V59.5962C44.1548 59.8185 44.0665 60.0317 43.9093 60.1889C43.7521 60.3461 43.5389 60.4344 43.3166 60.4344ZM6.40207 58.7579H42.4783V8.71945H6.40207V58.7579Z" fill="#383A49"/>
<path d="M23.1813 28.5294C21.4784 28.5274 19.8458 27.8501 18.6417 26.646C17.4376 25.4418 16.7602 23.8092 16.7583 22.1063C17.0601 13.6055 29.3041 13.6078 29.6044 22.1063C29.6025 23.8092 28.9252 25.4419 27.721 26.646C26.5169 27.8502 24.8843 28.5275 23.1813 28.5294ZM23.1813 17.3598C21.9229 17.3612 20.7165 17.8617 19.8266 18.7515C18.9368 19.6413 18.4362 20.8477 18.4348 22.1061C18.6578 28.3881 27.706 28.3864 27.9279 22.1061C27.9264 20.8477 27.4258 19.6414 26.536 18.7516C25.6461 17.8618 24.4397 17.3612 23.1813 17.3598Z" fill="#383A49"/>
<path d="M18.4328 45.909H17.6964C17.347 45.9066 17.0017 45.8328 16.6818 45.6921C16.3619 45.5513 16.0742 45.3467 15.8363 45.0906C15.5984 44.8346 15.4154 44.5327 15.2985 44.2033C15.1816 43.874 15.1333 43.5242 15.1566 43.1755L15.5009 38.5023C15.8906 34.7007 17.9265 30.951 23.1813 30.8324C27.0931 30.8324 29.0326 33.1459 29.971 35.0865C30.2759 35.8409 31.1423 37.2724 29.9595 37.6756C28.8233 37.9292 28.8794 36.484 28.4618 35.8164C26.5967 31.3946 19.7665 31.3946 17.9018 35.8164C16.964 37.4621 17.0426 41.4236 16.8288 43.2977C16.8196 43.417 16.8353 43.537 16.875 43.6499C16.9147 43.7629 16.9775 43.8663 17.0594 43.9536C17.3483 44.3356 18.0233 44.2135 18.4332 44.2315C19.5351 44.2495 19.5336 45.8918 18.4328 45.909Z" fill="#383A49"/>
<path d="M29.3202 52.7202C27.1166 52.7177 25.004 51.8413 23.4459 50.2831C21.8877 48.725 21.0113 46.6124 21.0088 44.4088C21.3992 33.4086 37.2428 33.4113 37.6316 44.4088C37.6291 46.6124 36.7526 48.725 35.1945 50.2831C33.6363 51.8413 31.5237 52.7177 29.3202 52.7202ZM29.3202 37.7739C27.5612 37.7761 25.8748 38.4758 24.631 39.7196C23.3872 40.9635 22.6874 42.6498 22.6853 44.4088C22.9969 53.1894 35.6447 53.188 35.9551 44.4088C35.9529 42.6498 35.2532 40.9635 34.0094 39.7196C32.7656 38.4758 31.0792 37.7761 29.3202 37.7739Z" fill="#383A49"/>
<path fill-rule="evenodd" clip-rule="evenodd" d="M393.38 33.8138V24.2378C393.38 17.4665 393.38 14.0809 395.483 11.9773C397.587 9.87378 400.973 9.87378 407.744 9.87378H426.896C433.667 9.87378 437.053 9.87378 439.156 11.9773C441.26 14.0809 441.26 17.4665 441.26 24.2378V33.8138C441.26 40.585 441.26 43.9706 439.156 46.0742C437.609 47.6217 435.368 48.0308 431.595 48.139C431.586 46.3775 430.975 44.6184 429.759 43.1925C429.691 43.1118 429.649 43.0115 429.641 42.906C429.34 39.1438 426.353 36.1563 422.591 35.8561C422.485 35.8477 422.385 35.8061 422.304 35.7374C419.432 33.2895 415.207 33.2895 412.334 35.7374C412.254 35.8061 412.154 35.8477 412.048 35.8561C408.286 36.1563 405.298 39.1438 404.998 42.906C404.99 43.0115 404.948 43.1118 404.88 43.1925C403.664 44.6184 403.052 46.3775 403.044 48.139C399.272 48.0308 397.031 47.6217 395.483 46.0742C393.38 43.9706 393.38 40.585 393.38 33.8138ZM408.342 19.4498C408.342 18.4582 409.146 17.6543 410.138 17.6543H424.502C425.493 17.6543 426.297 18.4582 426.297 19.4498C426.297 20.4414 425.493 21.2453 424.502 21.2453H410.138C409.146 21.2453 408.342 20.4414 408.342 19.4498ZM405.35 26.0333C404.358 26.0333 403.554 26.8372 403.554 27.8288C403.554 28.8204 404.358 29.6243 405.35 29.6243H429.29C430.281 29.6243 431.085 28.8204 431.085 27.8288C431.085 26.8372 430.281 26.0333 429.29 26.0333H405.35Z" fill="#1C274D"/>
<path fill-rule="evenodd" clip-rule="evenodd" d="M419.976 38.4706C418.445 37.1664 416.194 37.1664 414.664 38.4706C414.008 39.0294 413.193 39.3672 412.334 39.4356C410.33 39.5958 408.738 41.1873 408.578 43.1916C408.509 44.0506 408.172 44.8657 407.613 45.5217C406.309 47.0519 406.309 49.3028 407.613 50.8332C408.172 51.489 408.509 52.3043 408.578 53.1631C408.738 55.1676 410.33 56.7591 412.334 56.919C413.193 56.9875 414.008 57.3253 414.664 57.884C416.194 59.1883 418.445 59.1883 419.976 57.884C420.631 57.3253 421.447 56.9875 422.305 56.919C424.31 56.7591 425.901 55.1676 426.061 53.1631C426.13 52.3043 426.468 51.489 427.026 50.8332C428.331 49.3028 428.331 47.0519 427.026 45.5217C426.468 44.8657 426.13 44.0506 426.061 43.1916C425.901 41.1873 424.31 39.5958 422.305 39.4356C421.447 39.3672 420.631 39.0294 419.976 38.4706ZM422.136 47.0964C422.861 46.4199 422.9 45.2837 422.224 44.5588C421.547 43.8339 420.411 43.7946 419.686 44.4712L415.781 48.1158L414.954 47.344C414.229 46.6674 413.093 46.7067 412.416 47.4316C411.74 48.1565 411.779 49.2927 412.504 49.9692L414.556 51.8844C415.246 52.5282 416.316 52.5282 417.006 51.8844L422.136 47.0964Z" fill="#1C274D"/>
<path d="M833.016 26.8867H827.418L825.861 22.9965C824.262 18.9968 820.446 16.413 816.138 16.413H804.261C799.954 16.413 796.137 18.9968 794.537 22.9965L792.98 26.8867H787.383C786.652 26.8867 786.116 27.5731 786.294 28.281L786.855 30.5254C786.979 31.0248 787.428 31.3755 787.944 31.3755H789.821C788.565 32.4724 787.756 34.0669 787.756 35.8642V40.353C787.756 41.8605 788.332 43.2211 789.252 44.2741V49.3305C789.252 50.9829 790.592 52.323 792.244 52.323H795.237C796.889 52.323 798.229 50.9829 798.229 49.3305V46.338H822.169V49.3305C822.169 50.9829 823.51 52.323 825.162 52.323H828.154C829.807 52.323 831.147 50.9829 831.147 49.3305V44.2741C832.067 43.2221 832.643 41.8614 832.643 40.353V35.8642C832.643 34.0669 831.834 32.4724 830.579 31.3755H832.456C832.971 31.3755 833.42 31.0248 833.545 30.5254L834.106 28.281C834.283 27.5731 833.747 26.8867 833.016 26.8867ZM800.093 25.2193C800.775 23.5155 802.425 22.398 804.261 22.398H816.138C817.973 22.398 819.624 23.5155 820.306 25.2193L822.169 29.8792H798.229L800.093 25.2193ZM795.237 40.3343C793.441 40.3343 792.244 39.141 792.244 37.3511C792.244 35.5612 793.441 34.368 795.237 34.368C797.032 34.368 799.726 37.0528 799.726 38.8427C799.726 40.6326 797.032 40.3343 795.237 40.3343ZM825.162 40.3343C823.366 40.3343 820.673 40.6326 820.673 38.8427C820.673 37.0528 823.366 34.368 825.162 34.368C826.957 34.368 828.154 35.5612 828.154 37.3511C828.154 39.141 826.957 40.3343 825.162 40.3343Z" fill="#95035C"/>
</svg>
